<svg width="257" height="70" viewBox="0 0 257 70" fill="none" xmlns="http://www.w3.org/2000/svg">
<path fill-rule="evenodd" clip-rule="evenodd" d="M24 14.5C21.4718 14.5 19.0526 15.5225 17.2731 17.3338C15.4946 19.1441 14.5 21.5939 14.5 24.1429C14.5 26.6918 15.4946 29.1416 17.2731 30.952C19.0526 32.7632 21.4718 33.7857 24 33.7857C26.5282 33.7857 28.9474 32.7632 30.7269 30.952C32.5054 29.1416 33.5 26.6918 33.5 24.1429C33.5 21.5939 32.5054 19.1441 30.7269 17.3338C28.9474 15.5225 26.5282 14.5 24 14.5ZM19.4131 19.4362C20.6343 18.1933 22.2847 17.5 24 17.5C25.7153 17.5 27.3657 18.1933 28.5869 19.4362C29.8088 20.68 30.5 22.3726 30.5 24.1429C30.5 25.9131 29.8088 27.6057 28.5869 28.8495C27.3657 30.0924 25.7153 30.7857 24 30.7857C22.2847 30.7857 20.6343 30.0924 19.4131 28.8495C18.1912 27.6057 17.5 25.9131 17.5 24.1429C17.5 22.3726 18.1912 20.68 19.4131 19.4362Z" fill="#0080FF"/>
<path d="M19.4293 38.9286C12.4571 38.9286 6.5 43.9987 6.5 50.6071V54C6.5 54.8284 7.17157 55.5 8 55.5C8.82843 55.5 9.5 54.8284 9.5 54V50.6071C9.5 45.973 13.7776 41.9286 19.4293 41.9286H28.5707C34.2224 41.9286 38.5 45.973 38.5 50.6071V54C38.5 54.8284 39.1716 55.5 40 55.5C40.8284 55.5 41.5 54.8284 41.5 54V50.6071C41.5 43.9987 35.5429 38.9286 28.5707 38.9286H19.4293Z" fill="#0080FF"/>
<path d="M91.76 52.28V56H71.9V52.28H80V17.42C79.64 17.9 79.1 18.44 78.38 19.04C77.7 19.6 76.9 20.16 75.98 20.72C75.06 21.24 74.12 21.68 73.16 22.04C72.2 22.4 71.32 22.58 70.52 22.58V18.74C71.6 18.74 72.68 18.46 73.76 17.9C74.84 17.3 75.84 16.64 76.76 15.92C77.72 15.16 78.48 14.48 79.04 13.88C79.64 13.24 79.96 12.9 80 12.86H84.14V52.28H91.76ZM128.774 56.6C125.894 56.52 123.354 55.82 121.154 54.5C118.954 53.18 117.114 51.46 115.634 49.34C114.154 47.18 113.034 44.86 112.274 42.38C111.514 39.86 111.134 37.4 111.134 35C111.134 32.44 111.534 29.88 112.334 27.32C113.174 24.76 114.354 22.44 115.874 20.36C117.434 18.24 119.294 16.56 121.454 15.32C123.614 14.04 126.054 13.4 128.774 13.4C131.694 13.4 134.234 14.08 136.394 15.44C138.594 16.8 140.434 18.56 141.914 20.72C143.394 22.88 144.494 25.22 145.214 27.74C145.974 30.26 146.354 32.68 146.354 35C146.354 37.6 145.934 40.18 145.094 42.74C144.294 45.26 143.134 47.56 141.614 49.64C140.094 51.72 138.234 53.4 136.034 54.68C133.874 55.92 131.454 56.56 128.774 56.6ZM115.394 35C115.474 37.08 115.794 39.18 116.354 41.3C116.954 43.38 117.814 45.3 118.934 47.06C120.054 48.78 121.414 50.18 123.014 51.26C124.654 52.3 126.574 52.82 128.774 52.82C131.014 52.82 132.974 52.26 134.654 51.14C136.334 50.02 137.714 48.56 138.794 46.76C139.914 44.92 140.754 42.98 141.314 40.94C141.874 38.86 142.154 36.88 142.154 35C142.154 32.92 141.854 30.84 141.254 28.76C140.654 26.64 139.774 24.72 138.614 23C137.454 21.24 136.054 19.84 134.414 18.8C132.774 17.72 130.894 17.18 128.774 17.18C126.494 17.18 124.514 17.76 122.834 18.92C121.154 20.04 119.754 21.5 118.634 23.3C117.554 25.1 116.734 27.04 116.174 29.12C115.654 31.16 115.394 33.12 115.394 35ZM169.79 56.6C166.91 56.52 164.37 55.82 162.17 54.5C159.97 53.18 158.13 51.46 156.65 49.34C155.17 47.18 154.05 44.86 153.29 42.38C152.53 39.86 152.15 37.4 152.15 35C152.15 32.44 152.55 29.88 153.35 27.32C154.19 24.76 155.37 22.44 156.89 20.36C158.45 18.24 160.31 16.56 162.47 15.32C164.63 14.04 167.07 13.4 169.79 13.4C172.71 13.4 175.25 14.08 177.41 15.44C179.61 16.8 181.45 18.56 182.93 20.72C184.41 22.88 185.51 25.22 186.23 27.74C186.99 30.26 187.37 32.68 187.37 35C187.37 37.6 186.95 40.18 186.11 42.74C185.31 45.26 184.15 47.56 182.63 49.64C181.11 51.72 179.25 53.4 177.05 54.68C174.89 55.92 172.47 56.56 169.79 56.6ZM156.41 35C156.49 37.08 156.81 39.18 157.37 41.3C157.97 43.38 158.83 45.3 159.95 47.06C161.07 48.78 162.43 50.18 164.03 51.26C165.67 52.3 167.59 52.82 169.79 52.82C172.03 52.82 173.99 52.26 175.67 51.14C177.35 50.02 178.73 48.56 179.81 46.76C180.93 44.92 181.77 42.98 182.33 40.94C182.89 38.86 183.17 36.88 183.17 35C183.17 32.92 182.87 30.84 182.27 28.76C181.67 26.64 180.79 24.72 179.63 23C178.47 21.24 177.07 19.84 175.43 18.8C173.79 17.72 171.91 17.18 169.79 17.18C167.51 17.18 165.53 17.76 163.85 18.92C162.17 20.04 160.77 21.5 159.65 23.3C158.57 25.1 157.75 27.04 157.19 29.12C156.67 31.16 156.41 33.12 156.41 35ZM210.805 56.6C207.925 56.52 205.385 55.82 203.185 54.5C200.985 53.18 199.145 51.46 197.665 49.34C196.185 47.18 195.065 44.86 194.305 42.38C193.545 39.86 193.165 37.4 193.165 35C193.165 32.44 193.565 29.88 194.365 27.32C195.205 24.76 196.385 22.44 197.905 20.36C199.465 18.24 201.325 16.56 203.485 15.32C205.645 14.04 208.085 13.4 210.805 13.4C213.725 13.4 216.265 14.08 218.425 15.44C220.625 16.8 222.465 18.56 223.945 20.72C225.425 22.88 226.525 25.22 227.245 27.74C228.005 30.26 228.385 32.68 228.385 35C228.385 37.6 227.965 40.18 227.125 42.74C226.325 45.26 225.165 47.56 223.645 49.64C222.125 51.72 220.265 53.4 218.065 54.68C215.905 55.92 213.485 56.56 210.805 56.6ZM197.425 35C197.505 37.08 197.825 39.18 198.385 41.3C198.985 43.38 199.845 45.3 200.965 47.06C202.085 48.78 203.445 50.18 205.045 51.26C206.685 52.3 208.605 52.82 210.805 52.82C213.045 52.82 215.005 52.26 216.685 51.14C218.365 50.02 219.745 48.56 220.825 46.76C221.945 44.92 222.785 42.98 223.345 40.94C223.905 38.86 224.185 36.88 224.185 35C224.185 32.92 223.885 30.84 223.285 28.76C222.685 26.64 221.805 24.72 220.645 23C219.485 21.24 218.085 19.84 216.445 18.8C214.805 17.72 212.925 17.18 210.805 17.18C208.525 17.18 206.545 17.76 204.865 18.92C203.185 20.04 201.785 21.5 200.665 23.3C199.585 25.1 198.765 27.04 198.205 29.12C197.685 31.16 197.425 33.12 197.425 35ZM253.081 33.02V36.38H245.641V44.48H241.861V36.38H234.421V33.02H241.861V24.92H245.641V33.02H253.081Z" fill="#0080FF"/>
</svg>
