<svg width="162" height="70" viewBox="0 0 162 70" fill="none" xmlns="http://www.w3.org/2000/svg">
<g clip-path="url(#clip0_255_1864)">
<path fill-rule="evenodd" clip-rule="evenodd" d="M8.90029 16.5765C9.68647 13.6424 12.7023 11.9012 15.6364 12.6874L41.7164 19.6755C44.6504 20.4617 46.3916 23.4776 45.6055 26.4116L38.0997 54.4235C37.3135 57.3575 34.2977 59.0987 31.3636 58.3126L5.28362 51.3245C2.34956 50.5383 0.608354 47.5224 1.39453 44.5884L8.90029 16.5765ZM14.8599 15.5852C13.5263 15.2278 12.1554 16.0193 11.7981 17.353L4.29231 45.3648C3.93496 46.6985 4.72641 48.0693 6.06008 48.4267L32.1401 55.4148C33.4737 55.7721 34.8446 54.9807 35.2019 53.647L42.7077 25.6352C43.065 24.3015 42.2736 22.9307 40.9399 22.5733L14.8599 15.5852Z" fill="#007FFF"/>
<path d="M14.7212 23.8302C14.9356 23.03 15.7581 22.5552 16.5583 22.7696L36.8428 28.2048C37.643 28.4192 38.1179 29.2417 37.9034 30.0419C37.689 30.8421 36.8665 31.317 36.0663 31.1026L15.7819 25.6674C14.9817 25.4529 14.5068 24.6304 14.7212 23.8302Z" fill="#007FFF"/>
<path d="M12.6507 31.5576C12.8651 30.7575 13.6876 30.2826 14.4878 30.497L34.7722 35.9322C35.5724 36.1466 36.0473 36.9691 35.8329 37.7693C35.6185 38.5695 34.796 39.0444 33.9958 38.83L13.7113 33.3948C12.9111 33.1804 12.4363 32.3578 12.6507 31.5576Z" fill="#007FFF"/>
<path d="M10.5801 39.2851C10.7945 38.4849 11.617 38.01 12.4172 38.2244L24.0083 41.3302C24.8085 41.5446 25.2834 42.3671 25.069 43.1673C24.8546 43.9675 24.0321 44.4424 23.2319 44.228L11.6408 41.1222C10.8406 40.9078 10.3657 40.0853 10.5801 39.2851Z" fill="#007FFF"/>
</g>
<path d="M85.1 56.54C82.58 56.54 80.3 56.12 78.26 55.28C76.22 54.44 74.56 53.28 73.28 51.8C72 50.32 71.2 48.6 70.88 46.64L73.4 44.36C73.48 45.72 74.02 47.06 75.02 48.38C76.02 49.66 77.38 50.7 79.1 51.5C80.86 52.3 82.86 52.7 85.1 52.7C87.1 52.7 88.9 52.36 90.5 51.68C92.14 50.96 93.42 50 94.34 48.8C95.3 47.56 95.78 46.12 95.78 44.48C95.78 42.72 95.22 41.22 94.1 39.98C92.98 38.7 91.4 37.72 89.36 37.04C87.32 36.36 84.9 36.02 82.1 36.02H80.06V32.48H82.1C85.98 32.48 89.04 31.84 91.28 30.56C93.52 29.28 94.64 27.36 94.64 24.8C94.64 23.12 94.18 21.66 93.26 20.42C92.38 19.18 91.18 18.22 89.66 17.54C88.18 16.86 86.56 16.52 84.8 16.52C82.16 16.52 79.9 17.1 78.02 18.26C76.14 19.42 74.82 20.86 74.06 22.58L71.24 19.82C72 18.38 73.06 17.14 74.42 16.1C75.82 15.06 77.4 14.26 79.16 13.7C80.96 13.14 82.82 12.86 84.74 12.86C87.46 12.86 89.88 13.38 92 14.42C94.16 15.46 95.84 16.86 97.04 18.62C98.28 20.38 98.9 22.4 98.9 24.68C98.9 26.28 98.58 27.72 97.94 29C97.3 30.24 96.36 31.3 95.12 32.18C93.88 33.02 92.36 33.66 90.56 34.1C92.44 34.46 94.08 35.16 95.48 36.2C96.92 37.24 98.02 38.52 98.78 40.04C99.58 41.52 99.98 43.16 99.98 44.96C99.98 47.36 99.28 49.42 97.88 51.14C96.52 52.86 94.72 54.2 92.48 55.16C90.24 56.08 87.78 56.54 85.1 56.54ZM119.119 56.6C116.079 56.6 113.339 55.86 110.899 54.38C108.499 52.86 106.679 50.86 105.439 48.38L108.199 46.34C109.279 48.3 110.799 49.88 112.759 51.08C114.719 52.28 116.859 52.88 119.179 52.88C121.179 52.88 122.959 52.44 124.519 51.56C126.119 50.68 127.379 49.48 128.299 47.96C129.259 46.4 129.739 44.6 129.739 42.56C129.739 40.6 129.279 38.88 128.359 37.4C127.439 35.88 126.219 34.7 124.699 33.86C123.179 32.98 121.459 32.54 119.539 32.54C117.699 32.54 115.939 32.96 114.259 33.8C112.579 34.64 111.219 35.82 110.179 37.34H106.339L111.139 13.4H131.719V17.18H114.199L111.199 32.48C112.239 31.36 113.519 30.5 115.039 29.9C116.599 29.26 118.259 28.94 120.019 28.94C122.619 28.94 124.959 29.52 127.039 30.68C129.159 31.84 130.819 33.44 132.019 35.48C133.259 37.48 133.879 39.82 133.879 42.5C133.879 45.26 133.219 47.72 131.899 49.88C130.579 52 128.799 53.66 126.559 54.86C124.359 56.02 121.879 56.6 119.119 56.6ZM158.159 33.02V36.38H150.719V44.48H146.939V36.38H139.499V33.02H146.939V24.92H150.719V33.02H158.159Z" fill="#0080FF"/>
<defs>
<clipPath id="clip0_255_1864">
<rect width="48" height="48" fill="white" transform="translate(0 11)"/>
</clipPath>
</defs>
</svg>
