<svg width="162" height="70" viewBox="0 0 162 70" fill="none" xmlns="http://www.w3.org/2000/svg">
<rect x="1" y="12" width="46" height="46" stroke="white" stroke-width="2"/>
<path fill-rule="evenodd" clip-rule="evenodd" d="M14 18.5C13.337 18.5 12.7011 18.7634 12.2322 19.2322C11.7634 19.7011 11.5 20.337 11.5 21V51.5H36.5V21C36.5 20.337 36.2366 19.7011 35.7678 19.2322C35.2989 18.7634 34.663 18.5 34 18.5H14ZM39.5 51.5V21C39.5 19.5413 38.9205 18.1424 37.8891 17.1109C36.8576 16.0795 35.4587 15.5 34 15.5H14C12.5413 15.5 11.1424 16.0795 10.1109 17.1109C9.07946 18.1424 8.5 19.5413 8.5 21V51.5H6C5.17157 51.5 4.5 52.1716 4.5 53C4.5 53.8284 5.17157 54.5 6 54.5H42C42.8284 54.5 43.5 53.8284 43.5 53C43.5 52.1716 42.8284 51.5 42 51.5H39.5ZM16.5 27C16.5 26.1716 17.1716 25.5 18 25.5H20C20.8284 25.5 21.5 26.1716 21.5 27C21.5 27.8284 20.8284 28.5 20 28.5H18C17.1716 28.5 16.5 27.8284 16.5 27ZM26.5 27C26.5 26.1716 27.1716 25.5 28 25.5H30C30.8284 25.5 31.5 26.1716 31.5 27C31.5 27.8284 30.8284 28.5 30 28.5H28C27.1716 28.5 26.5 27.8284 26.5 27ZM16.5 35C16.5 34.1716 17.1716 33.5 18 33.5H20C20.8284 33.5 21.5 34.1716 21.5 35C21.5 35.8284 20.8284 36.5 20 36.5H18C17.1716 36.5 16.5 35.8284 16.5 35ZM26.5 35C26.5 34.1716 27.1716 33.5 28 33.5H30C30.8284 33.5 31.5 34.1716 31.5 35C31.5 35.8284 30.8284 36.5 30 36.5H28C27.1716 36.5 26.5 35.8284 26.5 35ZM16.5 43C16.5 42.1716 17.1716 41.5 18 41.5H20C20.8284 41.5 21.5 42.1716 21.5 43C21.5 43.8284 20.8284 44.5 20 44.5H18C17.1716 44.5 16.5 43.8284 16.5 43ZM26.5 43C26.5 42.1716 27.1716 41.5 28 41.5H30C30.8284 41.5 31.5 42.1716 31.5 43C31.5 43.8284 30.8284 44.5 30 44.5H28C27.1716 44.5 26.5 43.8284 26.5 43Z" fill="#0080FF"/>
<path d="M77.54 21.2V56H73.34V13.4H76.58L104.78 48.86V13.46H108.98V56H105.32L77.54 21.2ZM124.46 35.12C122.3 35.12 120.4 34.62 118.76 33.62C117.16 32.62 115.9 31.28 114.98 29.6C114.1 27.92 113.66 26.14 113.66 24.26C113.66 22.26 114.12 20.44 115.04 18.8C115.96 17.12 117.22 15.78 118.82 14.78C120.46 13.78 122.32 13.28 124.4 13.28C126.56 13.28 128.44 13.78 130.04 14.78C131.68 15.78 132.96 17.12 133.88 18.8C134.8 20.44 135.26 22.26 135.26 24.26C135.26 26.14 134.8 27.92 133.88 29.6C132.96 31.28 131.68 32.62 130.04 33.62C128.44 34.62 126.58 35.12 124.46 35.12ZM117.08 24.32C117.08 25.76 117.4 27.08 118.04 28.28C118.72 29.48 119.62 30.44 120.74 31.16C121.86 31.88 123.1 32.24 124.46 32.24C125.82 32.24 127.04 31.88 128.12 31.16C129.24 30.4 130.14 29.42 130.82 28.22C131.5 26.98 131.84 25.64 131.84 24.2C131.84 22.68 131.5 21.34 130.82 20.18C130.14 18.98 129.24 18.02 128.12 17.3C127.04 16.58 125.82 16.22 124.46 16.22C123.14 16.22 121.9 16.58 120.74 17.3C119.62 18.02 118.72 19 118.04 20.24C117.4 21.44 117.08 22.8 117.08 24.32ZM160.139 52.28V56H140.279V52.28H148.379V17.42C148.019 17.9 147.479 18.44 146.759 19.04C146.079 19.6 145.279 20.16 144.359 20.72C143.439 21.24 142.499 21.68 141.539 22.04C140.579 22.4 139.699 22.58 138.899 22.58V18.74C139.979 18.74 141.059 18.46 142.139 17.9C143.219 17.3 144.219 16.64 145.139 15.92C146.099 15.16 146.859 14.48 147.419 13.88C148.019 13.24 148.339 12.9 148.379 12.86H152.519V52.28H160.139Z" fill="#0080FF"/>
</svg>
