<svg width="493" height="680" viewBox="0 0 493 680" fill="none" xmlns="http://www.w3.org/2000/svg">
<path d="M3.4275 39V10.6H25.8675V39H21.3475V14.56H7.9075V39H3.4275ZM41.1338 39.4C39.4804 39.4 38.0004 39.12 36.6938 38.56C35.3871 37.9733 34.2538 37.1733 33.2938 36.16C32.3604 35.1467 31.6404 34 31.1338 32.72C30.6271 31.4133 30.3738 30.0267 30.3738 28.56C30.3738 27.0933 30.6271 25.7067 31.1338 24.4C31.6404 23.0933 32.3604 21.9467 33.2938 20.96C34.2538 19.9467 35.3871 19.16 36.6938 18.6C38.0271 18.0133 39.5071 17.72 41.1338 17.72C42.7604 17.72 44.2271 18.0133 45.5338 18.6C46.8671 19.16 48.0004 19.9467 48.9338 20.96C49.8938 21.9467 50.6271 23.0933 51.1337 24.4C51.6404 25.7067 51.8938 27.0933 51.8938 28.56C51.8938 30.0267 51.6404 31.4133 51.1337 32.72C50.6271 34 49.8938 35.1467 48.9338 36.16C48.0004 37.1733 46.8671 37.9733 45.5338 38.56C44.2271 39.12 42.7604 39.4 41.1338 39.4ZM34.8938 28.6C34.8938 29.9333 35.1738 31.1333 35.7338 32.2C36.2938 33.2667 37.0404 34.1067 37.9738 34.72C38.9071 35.3333 39.9604 35.64 41.1338 35.64C42.2804 35.64 43.3204 35.3333 44.2538 34.72C45.2138 34.08 45.9738 33.2267 46.5338 32.16C47.0938 31.0667 47.3738 29.8667 47.3738 28.56C47.3738 27.2267 47.0938 26.0267 46.5338 24.96C45.9738 23.8933 45.2138 23.0533 44.2538 22.44C43.3204 21.8 42.2804 21.48 41.1338 21.48C39.9604 21.48 38.9071 21.8 37.9738 22.44C37.0404 23.08 36.2938 23.9333 35.7338 25C35.1738 26.04 34.8938 27.24 34.8938 28.6ZM67.5563 39V31.04C66.7563 31.4133 65.9296 31.6933 65.0763 31.88C64.2229 32.04 63.2629 32.12 62.1963 32.12C59.9563 32.12 58.2229 31.5333 56.9963 30.36C55.7963 29.16 55.1963 27.3867 55.1963 25.04V18.08H59.5963V24.48C59.5963 25.9467 59.9029 27.0267 60.5163 27.72C61.1296 28.3867 62.1163 28.72 63.4763 28.72C64.2229 28.72 64.9696 28.64 65.7163 28.48C66.4629 28.32 67.0763 28.1067 67.5563 27.84V18.08H71.9963V39H67.5563ZM86.7997 39.4C85.173 39.4 83.693 39.12 82.3597 38.56C81.053 37.9733 79.9197 37.1867 78.9597 36.2C77.9997 35.1867 77.253 34.04 76.7197 32.76C76.213 31.4533 75.9597 30.0667 75.9597 28.6C75.9597 26.6267 76.413 24.8267 77.3197 23.2C78.2264 21.5467 79.493 20.2267 81.1197 19.24C82.7464 18.2267 84.653 17.72 86.8397 17.72C89.0264 17.72 90.9064 18.2267 92.4797 19.24C94.0797 20.2267 95.3197 21.5333 96.1997 23.16C97.0797 24.7867 97.5197 26.5333 97.5197 28.4C97.5197 28.72 97.5064 29.0267 97.4797 29.32C97.453 29.5867 97.4264 29.8133 97.3997 30H80.6397C80.7197 31.2267 81.053 32.3067 81.6397 33.24C82.253 34.1467 83.0264 34.8667 83.9597 35.4C84.893 35.9067 85.893 36.16 86.9597 36.16C88.133 36.16 89.2397 35.8667 90.2797 35.28C91.3464 34.6933 92.0664 33.92 92.4397 32.96L96.1997 34.04C95.7464 35.0533 95.053 35.9733 94.1197 36.8C93.213 37.6 92.133 38.24 90.8797 38.72C89.6264 39.1733 88.2664 39.4 86.7997 39.4ZM80.5197 27.08H93.1597C93.0797 25.88 92.733 24.8267 92.1197 23.92C91.533 22.9867 90.773 22.2667 89.8397 21.76C88.933 21.2267 87.9197 20.96 86.7997 20.96C85.7064 20.96 84.693 21.2267 83.7597 21.76C82.853 22.2667 82.1064 22.9867 81.5197 23.92C80.933 24.8267 80.5997 25.88 80.5197 27.08ZM101.109 39V18.08H105.669L112.869 31L120.109 18.08H124.589V39H120.389V24.28L114.229 35.28H111.469L105.269 24.28V39H101.109ZM132.66 47.88C132.18 47.88 131.673 47.8133 131.14 47.68C130.606 47.5467 130.046 47.3467 129.46 47.08L130.58 43.8C130.9 43.96 131.206 44.08 131.5 44.16C131.793 44.24 132.06 44.28 132.3 44.28C132.966 44.28 133.566 44 134.1 43.44C134.66 42.9067 135.153 42.0933 135.58 41L136.38 38.84L127.54 18.08H132.14L138.54 34.52L144.22 18.08H148.46L139.26 42.2C138.806 43.4533 138.233 44.4933 137.54 45.32C136.873 46.1467 136.126 46.7733 135.3 47.2C134.473 47.6533 133.593 47.88 132.66 47.88ZM161.083 39V10.6H173.003C174.283 10.6 175.456 10.8667 176.523 11.4C177.589 11.9333 178.523 12.64 179.323 13.52C180.123 14.4 180.736 15.3867 181.163 16.48C181.589 17.5733 181.803 18.6933 181.803 19.84C181.803 21.4133 181.443 22.92 180.723 24.36C180.029 25.7733 179.029 26.92 177.723 27.8C176.443 28.68 174.949 29.12 173.243 29.12H165.563V39H161.083ZM165.563 25.16H172.963C173.816 25.16 174.563 24.9333 175.203 24.48C175.843 24 176.336 23.36 176.683 22.56C177.056 21.76 177.243 20.8533 177.243 19.84C177.243 18.8 177.029 17.88 176.603 17.08C176.176 16.28 175.616 15.6667 174.923 15.24C174.256 14.7867 173.523 14.56 172.723 14.56H165.563V25.16ZM186.045 39V10.6H202.965V14.56H190.525V39H186.045ZM205.377 24.6C205.377 22.8667 205.683 21.1733 206.297 19.52C206.91 17.84 207.803 16.32 208.977 14.96C210.177 13.5733 211.63 12.48 213.337 11.68C215.043 10.8533 216.977 10.44 219.137 10.44C221.697 10.44 223.91 11.0267 225.777 12.2C227.643 13.3467 229.03 14.8267 229.937 16.64L226.417 19C225.883 17.8533 225.203 16.9467 224.377 16.28C223.577 15.6133 222.697 15.1467 221.737 14.88C220.803 14.6133 219.883 14.48 218.977 14.48C217.483 14.48 216.177 14.7867 215.057 15.4C213.937 15.9867 212.99 16.7733 212.217 17.76C211.47 18.7467 210.897 19.8533 210.497 21.08C210.123 22.3067 209.937 23.5333 209.937 24.76C209.937 26.12 210.163 27.44 210.617 28.72C211.07 29.9733 211.697 31.0933 212.497 32.08C213.323 33.04 214.297 33.8 215.417 34.36C216.537 34.92 217.763 35.2 219.097 35.2C220.003 35.2 220.95 35.04 221.937 34.72C222.923 34.4 223.83 33.9067 224.657 33.24C225.51 32.5467 226.177 31.64 226.657 30.52L230.377 32.64C229.79 34.0533 228.87 35.2533 227.617 36.24C226.39 37.2267 225.003 37.9733 223.457 38.48C221.937 38.9867 220.43 39.24 218.937 39.24C216.937 39.24 215.11 38.8267 213.457 38C211.803 37.1467 210.377 36.0267 209.177 34.64C207.977 33.2267 207.043 31.6533 206.377 29.92C205.71 28.16 205.377 26.3867 205.377 24.6ZM237.4 39.16V35.4H239.44C240.107 35.4 240.614 35.24 240.96 34.92C241.307 34.6 241.64 34.12 241.96 33.48L242.8 31.64L231.24 10.6H236.2L244.84 27.04L252.16 10.6H256.92L245.4 35.6C244.76 36.9067 244.054 37.8267 243.28 38.36C242.534 38.8933 241.507 39.16 240.2 39.16H237.4ZM261.836 30.16C261.836 29.2267 261.942 28.3733 262.156 27.6C262.369 26.8267 262.716 26.12 263.196 25.48C263.676 24.8133 264.329 24.2267 265.156 23.72C265.609 23.4533 266.142 23.16 266.756 22.84C267.369 22.4933 267.956 22.0933 268.516 21.64C269.076 21.1867 269.542 20.6533 269.916 20.04C270.316 19.4267 270.516 18.7067 270.516 17.88C270.516 17 270.302 16.2667 269.876 15.68C269.449 15.0667 268.902 14.6133 268.236 14.32C267.596 14 266.889 13.84 266.116 13.84C265.289 13.84 264.529 14.0133 263.836 14.36C263.142 14.7067 262.542 15.1467 262.036 15.68C261.529 16.2133 261.102 16.7733 260.756 17.36L257.876 15.4C258.356 14.3067 259.022 13.3733 259.876 12.6C260.729 11.8267 261.702 11.24 262.796 10.84C263.889 10.44 265.036 10.24 266.236 10.24C267.222 10.24 268.196 10.4 269.156 10.72C270.142 11.0133 271.022 11.48 271.796 12.12C272.569 12.76 273.182 13.5733 273.636 14.56C274.116 15.52 274.356 16.68 274.356 18.04C274.356 18.9733 274.236 19.7867 273.996 20.48C273.782 21.1467 273.462 21.7467 273.036 22.28C272.609 22.8133 272.116 23.2933 271.556 23.72C270.996 24.12 270.382 24.5067 269.716 24.88C269.049 25.28 268.396 25.6933 267.756 26.12C267.116 26.52 266.582 27.0267 266.156 27.64C265.729 28.2533 265.516 29.0933 265.516 30.16H261.836ZM261.956 39V33.96H265.596V39H261.956Z" fill="#070E18"/>
<g clip-path="url(#clip0_261_2030)">
<rect x="190" y="347" width="210" height="332.616" rx="105" fill="white" stroke="#0080FF" stroke-width="8"/>
<path fill-rule="evenodd" clip-rule="evenodd" d="M186 452C186 391.801 234.801 343 295 343C355.199 343 404 391.801 404 452V574.616C404 634.815 355.199 683.616 295 683.616C234.801 683.616 186 634.815 186 574.616V452ZM295 351C239.219 351 194 396.219 194 452V574.616C194 630.397 239.219 675.616 295 675.616C350.781 675.616 396 630.397 396 574.616V452C396 396.219 350.781 351 295 351Z" fill="#1B8BF5"/>
<rect x="220.705" y="234" width="141.391" height="141.391" rx="70.6954" fill="white" stroke="#0080FF" stroke-width="8"/>
<path fill-rule="evenodd" clip-rule="evenodd" d="M216.705 304.695C216.705 263.442 250.147 230 291.4 230C332.654 230 366.096 263.442 366.096 304.695C366.096 345.948 332.654 379.391 291.4 379.391C250.147 379.391 216.705 345.948 216.705 304.695ZM291.4 238C254.566 238 224.705 267.861 224.705 304.695C224.705 341.53 254.566 371.391 291.4 371.391C328.235 371.391 358.096 341.53 358.096 304.695C358.096 267.861 328.235 238 291.4 238Z" fill="#1B8BF5"/>
<rect x="102" y="356.079" width="183" height="332.616" rx="91.5" fill="white" stroke="#0080FF" stroke-width="8"/>
<path fill-rule="evenodd" clip-rule="evenodd" d="M98 447.579C98 394.836 140.757 352.079 193.5 352.079C246.243 352.079 289 394.836 289 447.579V597.195C289 649.938 246.243 692.695 193.5 692.695C140.757 692.695 98 649.938 98 597.195V447.579ZM193.5 360.079C145.175 360.079 106 399.254 106 447.579V597.195C106 645.52 145.175 684.695 193.5 684.695C241.825 684.695 281 645.52 281 597.195V447.579C281 399.254 241.825 360.079 193.5 360.079Z" fill="#1B8BF5"/>
<rect x="122.705" y="262" width="141.391" height="141.391" rx="70.6954" fill="white" stroke="#0080FF" stroke-width="8"/>
<path fill-rule="evenodd" clip-rule="evenodd" d="M118.705 332.695C118.705 291.442 152.147 258 193.4 258C234.654 258 268.096 291.442 268.096 332.695C268.096 373.948 234.654 407.391 193.4 407.391C152.147 407.391 118.705 373.948 118.705 332.695ZM193.4 266C156.566 266 126.705 295.861 126.705 332.695C126.705 369.53 156.566 399.391 193.4 399.391C230.235 399.391 260.096 369.53 260.096 332.695C260.096 295.861 230.235 266 193.4 266Z" fill="#1B8BF5"/>
<rect x="306" y="542.396" width="139" height="228.075" rx="69.5" fill="white" stroke="#0080FF" stroke-width="8"/>
<path fill-rule="evenodd" clip-rule="evenodd" d="M302 611.896C302 571.303 334.907 538.396 375.5 538.396C416.093 538.396 449 571.303 449 611.896V700.971C449 741.564 416.093 774.471 375.5 774.471C334.907 774.471 302 741.564 302 700.971V611.896ZM375.5 546.396C339.325 546.396 310 575.721 310 611.896V700.971C310 737.146 339.325 766.471 375.5 766.471C411.675 766.471 441 737.146 441 700.971V611.896C441 575.721 411.675 546.396 375.5 546.396Z" fill="#1B8BF5"/>
<rect x="323.971" y="477.461" width="104.029" height="104.029" rx="52.0144" fill="white" stroke="#0080FF" stroke-width="8"/>
<path fill-rule="evenodd" clip-rule="evenodd" d="M319.971 529.476C319.971 498.54 345.049 473.461 375.985 473.461C406.921 473.461 431.999 498.54 431.999 529.476C431.999 560.412 406.921 585.49 375.985 585.49C345.049 585.49 319.971 560.412 319.971 529.476ZM375.985 481.461C349.467 481.461 327.971 502.958 327.971 529.476C327.971 555.993 349.467 577.49 375.985 577.49C402.503 577.49 423.999 555.993 423.999 529.476C423.999 502.958 402.503 481.461 375.985 481.461Z" fill="#1B8BF5"/>
<rect x="173" y="511" width="151" height="287" rx="75.5" fill="white" stroke="#0080FF" stroke-width="8"/>
<path fill-rule="evenodd" clip-rule="evenodd" d="M169 586.5C169 542.593 204.593 507 248.5 507C292.407 507 328 542.593 328 586.5V722.5C328 766.407 292.407 802 248.5 802C204.593 802 169 766.407 169 722.5V586.5ZM248.5 515C209.012 515 177 547.012 177 586.5V722.5C177 761.988 209.012 794 248.5 794C287.988 794 320 761.988 320 722.5V586.5C320 547.012 287.988 515 248.5 515Z" fill="#1B8BF5"/>
<rect x="190" y="435" width="122" height="122" rx="61" fill="white" stroke="#0080FF" stroke-width="8"/>
<path fill-rule="evenodd" clip-rule="evenodd" d="M186 496C186 460.101 215.101 431 251 431C286.899 431 316 460.101 316 496C316 531.899 286.899 561 251 561C215.101 561 186 531.899 186 496ZM251 439C219.52 439 194 464.52 194 496C194 527.48 219.52 553 251 553C282.48 553 308 527.48 308 496C308 464.52 282.48 439 251 439Z" fill="#1B8BF5"/>
<rect x="49" y="568.662" width="144" height="228.075" rx="72" fill="white" stroke="#0080FF" stroke-width="8"/>
<path fill-rule="evenodd" clip-rule="evenodd" d="M45 640.662C45 598.688 79.0264 564.662 121 564.662C162.974 564.662 197 598.688 197 640.662V724.737C197 766.71 162.974 800.737 121 800.737C79.0264 800.737 45 766.71 45 724.737V640.662ZM121 572.662C83.4446 572.662 53 603.106 53 640.662V724.737C53 762.292 83.4446 792.737 121 792.737C158.555 792.737 189 762.292 189 724.737V640.662C189 603.106 158.555 572.662 121 572.662Z" fill="#1B8BF5"/>
<rect x="71.5098" y="510.266" width="96.9518" height="96.9518" rx="48.4759" fill="white" stroke="#0080FF" stroke-width="8"/>
<path fill-rule="evenodd" clip-rule="evenodd" d="M67.5098 558.742C67.5098 529.76 91.004 506.266 119.986 506.266C148.967 506.266 172.462 529.76 172.462 558.742C172.462 587.723 148.967 611.217 119.986 611.217C91.004 611.217 67.5098 587.723 67.5098 558.742ZM119.986 514.266C95.4223 514.266 75.5098 534.178 75.5098 558.742C75.5098 583.305 95.4223 603.217 119.986 603.217C144.549 603.217 164.462 583.305 164.462 558.742C164.462 534.178 144.549 514.266 119.986 514.266Z" fill="#1B8BF5"/>
<path d="M0 672H493V921H0V672Z" fill="white"/>
<path d="M0 676H493V668H0V676Z" fill="#0080FF"/>
</g>
<defs>
<clipPath id="clip0_261_2030">
<rect width="493" height="550" fill="white" transform="translate(0 130)"/>
</clipPath>
</defs>
</svg>
