<svg width="536" height="119" viewBox="0 0 536 119" fill="none" xmlns="http://www.w3.org/2000/svg">
<path d="M161.594 20.448V16.218H162.206C162.542 16.218 162.83 16.086 163.07 15.822C163.322 15.558 163.532 15.138 163.7 14.562C163.88 13.986 164.018 13.23 164.114 12.294C164.222 11.346 164.3 10.188 164.348 8.82L164.438 5.22H172.664V16.218H174.284V20.448H172.502V18H163.376V20.448H161.594ZM164.762 16.218H170.63V7.002H166.31L166.256 9.09C166.22 10.47 166.148 11.64 166.04 12.6C165.932 13.548 165.776 14.316 165.572 14.904C165.368 15.492 165.098 15.93 164.762 16.218ZM180.322 18.18C179.578 18.18 178.912 18.054 178.324 17.802C177.736 17.538 177.226 17.178 176.794 16.722C176.374 16.266 176.05 15.75 175.822 15.174C175.594 14.586 175.48 13.962 175.48 13.302C175.48 12.642 175.594 12.018 175.822 11.43C176.05 10.842 176.374 10.326 176.794 9.882C177.226 9.426 177.736 9.072 178.324 8.82C178.924 8.556 179.59 8.424 180.322 8.424C181.054 8.424 181.714 8.556 182.302 8.82C182.902 9.072 183.412 9.426 183.832 9.882C184.264 10.326 184.594 10.842 184.822 11.43C185.05 12.018 185.164 12.642 185.164 13.302C185.164 13.962 185.05 14.586 184.822 15.174C184.594 15.75 184.264 16.266 183.832 16.722C183.412 17.178 182.902 17.538 182.302 17.802C181.714 18.054 181.054 18.18 180.322 18.18ZM177.514 13.32C177.514 13.92 177.64 14.46 177.892 14.94C178.144 15.42 178.48 15.798 178.9 16.074C179.32 16.35 179.794 16.488 180.322 16.488C180.838 16.488 181.306 16.35 181.726 16.074C182.158 15.786 182.5 15.402 182.752 14.922C183.004 14.43 183.13 13.89 183.13 13.302C183.13 12.702 183.004 12.162 182.752 11.682C182.5 11.202 182.158 10.824 181.726 10.548C181.306 10.26 180.838 10.116 180.322 10.116C179.794 10.116 179.32 10.26 178.9 10.548C178.48 10.836 178.144 11.22 177.892 11.7C177.64 12.168 177.514 12.708 177.514 13.32ZM191.368 18V8.586H193.33V12.312H194.266L197.038 8.586H199.234L195.796 13.14L199.63 18H197.344L194.248 14.094H193.33V18H191.368ZM204.879 18.18C204.135 18.18 203.469 18.054 202.881 17.802C202.293 17.538 201.783 17.178 201.351 16.722C200.931 16.266 200.607 15.75 200.379 15.174C200.151 14.586 200.037 13.962 200.037 13.302C200.037 12.642 200.151 12.018 200.379 11.43C200.607 10.842 200.931 10.326 201.351 9.882C201.783 9.426 202.293 9.072 202.881 8.82C203.481 8.556 204.147 8.424 204.879 8.424C205.611 8.424 206.271 8.556 206.859 8.82C207.459 9.072 207.969 9.426 208.389 9.882C208.821 10.326 209.151 10.842 209.379 11.43C209.607 12.018 209.721 12.642 209.721 13.302C209.721 13.962 209.607 14.586 209.379 15.174C209.151 15.75 208.821 16.266 208.389 16.722C207.969 17.178 207.459 17.538 206.859 17.802C206.271 18.054 205.611 18.18 204.879 18.18ZM202.071 13.32C202.071 13.92 202.197 14.46 202.449 14.94C202.701 15.42 203.037 15.798 203.457 16.074C203.877 16.35 204.351 16.488 204.879 16.488C205.395 16.488 205.863 16.35 206.283 16.074C206.715 15.786 207.057 15.402 207.309 14.922C207.561 14.43 207.687 13.89 207.687 13.302C207.687 12.702 207.561 12.162 207.309 11.682C207.057 11.202 206.715 10.824 206.283 10.548C205.863 10.26 205.395 10.116 204.879 10.116C204.351 10.116 203.877 10.26 203.457 10.548C203.037 10.836 202.701 11.22 202.449 11.7C202.197 12.168 202.071 12.708 202.071 13.32ZM211.477 18V8.586H213.457V12.33H217.831V8.586H219.811V18H217.831V14.04H213.457V18H211.477ZM229.58 20.25V18H222.2V8.586H224.18V16.272H228.032V8.586H230.012V16.272H231.326V20.25H229.58ZM232.309 15.246C232.309 14.646 232.477 14.124 232.813 13.68C233.161 13.224 233.635 12.876 234.235 12.636C234.835 12.384 235.531 12.258 236.323 12.258C236.743 12.258 237.169 12.288 237.601 12.348C238.045 12.408 238.435 12.504 238.771 12.636V12.042C238.771 11.382 238.573 10.866 238.177 10.494C237.781 10.122 237.211 9.936 236.467 9.936C235.939 9.936 235.441 10.032 234.973 10.224C234.505 10.404 234.007 10.662 233.479 10.998L232.813 9.666C233.437 9.246 234.061 8.934 234.685 8.73C235.321 8.526 235.987 8.424 236.683 8.424C237.943 8.424 238.933 8.76 239.653 9.432C240.385 10.092 240.751 11.034 240.751 12.258V15.768C240.751 15.996 240.787 16.158 240.859 16.254C240.943 16.35 241.081 16.404 241.273 16.416V18C241.093 18.036 240.931 18.06 240.787 18.072C240.643 18.084 240.523 18.09 240.427 18.09C240.007 18.09 239.689 17.988 239.473 17.784C239.257 17.58 239.131 17.34 239.095 17.064L239.041 16.524C238.633 17.052 238.111 17.46 237.475 17.748C236.839 18.036 236.197 18.18 235.549 18.18C234.925 18.18 234.367 18.054 233.875 17.802C233.383 17.538 232.999 17.184 232.723 16.74C232.447 16.296 232.309 15.798 232.309 15.246ZM238.303 15.822C238.447 15.666 238.561 15.51 238.645 15.354C238.729 15.198 238.771 15.06 238.771 14.94V13.86C238.435 13.728 238.081 13.632 237.709 13.572C237.337 13.5 236.971 13.464 236.611 13.464C235.891 13.464 235.303 13.608 234.847 13.896C234.403 14.184 234.181 14.58 234.181 15.084C234.181 15.36 234.253 15.624 234.397 15.876C234.553 16.128 234.769 16.332 235.045 16.488C235.333 16.644 235.687 16.722 236.107 16.722C236.539 16.722 236.953 16.638 237.349 16.47C237.745 16.302 238.063 16.086 238.303 15.822ZM247.6 18V8.586H249.58V12.33H253.954V8.586H255.934V18H253.954V14.04H249.58V18H247.6ZM257.639 15.246C257.639 14.646 257.807 14.124 258.143 13.68C258.491 13.224 258.965 12.876 259.565 12.636C260.165 12.384 260.861 12.258 261.653 12.258C262.073 12.258 262.499 12.288 262.931 12.348C263.375 12.408 263.765 12.504 264.101 12.636V12.042C264.101 11.382 263.903 10.866 263.507 10.494C263.111 10.122 262.541 9.936 261.797 9.936C261.269 9.936 260.771 10.032 260.303 10.224C259.835 10.404 259.337 10.662 258.809 10.998L258.143 9.666C258.767 9.246 259.391 8.934 260.015 8.73C260.651 8.526 261.317 8.424 262.013 8.424C263.273 8.424 264.263 8.76 264.983 9.432C265.715 10.092 266.081 11.034 266.081 12.258V15.768C266.081 15.996 266.117 16.158 266.189 16.254C266.273 16.35 266.411 16.404 266.603 16.416V18C266.423 18.036 266.261 18.06 266.117 18.072C265.973 18.084 265.853 18.09 265.757 18.09C265.337 18.09 265.019 17.988 264.803 17.784C264.587 17.58 264.461 17.34 264.425 17.064L264.371 16.524C263.963 17.052 263.441 17.46 262.805 17.748C262.169 18.036 261.527 18.18 260.879 18.18C260.255 18.18 259.697 18.054 259.205 17.802C258.713 17.538 258.329 17.184 258.053 16.74C257.777 16.296 257.639 15.798 257.639 15.246ZM263.633 15.822C263.777 15.666 263.891 15.51 263.975 15.354C264.059 15.198 264.101 15.06 264.101 14.94V13.86C263.765 13.728 263.411 13.632 263.039 13.572C262.667 13.5 262.301 13.464 261.941 13.464C261.221 13.464 260.633 13.608 260.177 13.896C259.733 14.184 259.511 14.58 259.511 15.084C259.511 15.36 259.583 15.624 259.727 15.876C259.883 16.128 260.099 16.332 260.375 16.488C260.663 16.644 261.017 16.722 261.437 16.722C261.869 16.722 262.283 16.638 262.679 16.47C263.075 16.302 263.393 16.086 263.633 15.822ZM273.037 18.18C271.465 18.18 270.271 17.706 269.455 16.758C268.639 15.81 268.231 14.454 268.231 12.69C268.231 11.538 268.327 10.566 268.519 9.774C268.723 8.97 269.017 8.31 269.401 7.794C269.797 7.278 270.283 6.858 270.859 6.534C271.447 6.198 272.125 5.928 272.893 5.724L276.907 4.608L276.979 6.264L273.037 7.38C272.413 7.572 271.879 7.824 271.435 8.136C271.003 8.448 270.661 8.856 270.409 9.36C270.157 9.852 269.989 10.476 269.905 11.232C270.241 10.62 270.721 10.14 271.345 9.792C271.969 9.444 272.707 9.27 273.559 9.27C274.435 9.27 275.191 9.456 275.827 9.828C276.463 10.188 276.955 10.692 277.303 11.34C277.651 11.988 277.825 12.732 277.825 13.572C277.825 14.484 277.639 15.288 277.267 15.984C276.907 16.668 276.367 17.208 275.647 17.604C274.939 17.988 274.069 18.18 273.037 18.18ZM273.037 16.488C273.913 16.488 274.591 16.23 275.071 15.714C275.563 15.198 275.809 14.514 275.809 13.662C275.809 12.846 275.563 12.18 275.071 11.664C274.591 11.136 273.913 10.872 273.037 10.872C272.521 10.872 272.053 10.986 271.633 11.214C271.213 11.43 270.883 11.748 270.643 12.168C270.403 12.576 270.283 13.074 270.283 13.662C270.283 14.214 270.391 14.706 270.607 15.138C270.823 15.558 271.135 15.888 271.543 16.128C271.951 16.368 272.449 16.488 273.037 16.488ZM283.84 18.18C283.096 18.18 282.43 18.054 281.842 17.802C281.254 17.538 280.744 17.178 280.312 16.722C279.892 16.266 279.568 15.75 279.34 15.174C279.112 14.586 278.998 13.962 278.998 13.302C278.998 12.642 279.112 12.018 279.34 11.43C279.568 10.842 279.892 10.326 280.312 9.882C280.744 9.426 281.254 9.072 281.842 8.82C282.442 8.556 283.108 8.424 283.84 8.424C284.572 8.424 285.232 8.556 285.82 8.82C286.42 9.072 286.93 9.426 287.35 9.882C287.782 10.326 288.112 10.842 288.34 11.43C288.568 12.018 288.682 12.642 288.682 13.302C288.682 13.962 288.568 14.586 288.34 15.174C288.112 15.75 287.782 16.266 287.35 16.722C286.93 17.178 286.42 17.538 285.82 17.802C285.232 18.054 284.572 18.18 283.84 18.18ZM281.032 13.32C281.032 13.92 281.158 14.46 281.41 14.94C281.662 15.42 281.998 15.798 282.418 16.074C282.838 16.35 283.312 16.488 283.84 16.488C284.356 16.488 284.824 16.35 285.244 16.074C285.676 15.786 286.018 15.402 286.27 14.922C286.522 14.43 286.648 13.89 286.648 13.302C286.648 12.702 286.522 12.162 286.27 11.682C286.018 11.202 285.676 10.824 285.244 10.548C284.824 10.26 284.356 10.116 283.84 10.116C283.312 10.116 282.838 10.26 282.418 10.548C281.998 10.836 281.662 11.22 281.41 11.7C281.158 12.168 281.032 12.708 281.032 13.32ZM295.784 18.18C295.028 18.18 294.362 18 293.786 17.64C293.21 17.28 292.754 16.812 292.418 16.236V21.834H290.438V8.586H292.184V10.278C292.544 9.714 293.012 9.264 293.588 8.928C294.164 8.592 294.806 8.424 295.514 8.424C296.162 8.424 296.756 8.556 297.296 8.82C297.836 9.072 298.304 9.426 298.7 9.882C299.096 10.338 299.402 10.86 299.618 11.448C299.846 12.024 299.96 12.636 299.96 13.284C299.96 14.184 299.78 15.006 299.42 15.75C299.072 16.494 298.58 17.088 297.944 17.532C297.32 17.964 296.6 18.18 295.784 18.18ZM295.136 16.488C295.556 16.488 295.934 16.398 296.27 16.218C296.618 16.038 296.912 15.798 297.152 15.498C297.404 15.198 297.596 14.856 297.728 14.472C297.86 14.088 297.926 13.692 297.926 13.284C297.926 12.852 297.854 12.444 297.71 12.06C297.566 11.676 297.356 11.34 297.08 11.052C296.816 10.764 296.504 10.536 296.144 10.368C295.796 10.2 295.412 10.116 294.992 10.116C294.74 10.116 294.476 10.164 294.2 10.26C293.924 10.356 293.666 10.488 293.426 10.656C293.186 10.824 292.976 11.022 292.796 11.25C292.616 11.478 292.49 11.718 292.418 11.97V14.436C292.586 14.82 292.808 15.168 293.084 15.48C293.36 15.78 293.678 16.026 294.038 16.218C294.398 16.398 294.764 16.488 295.136 16.488ZM301.057 15.246C301.057 14.646 301.225 14.124 301.561 13.68C301.909 13.224 302.383 12.876 302.983 12.636C303.583 12.384 304.279 12.258 305.071 12.258C305.491 12.258 305.917 12.288 306.349 12.348C306.793 12.408 307.183 12.504 307.519 12.636V12.042C307.519 11.382 307.321 10.866 306.925 10.494C306.529 10.122 305.959 9.936 305.215 9.936C304.687 9.936 304.189 10.032 303.721 10.224C303.253 10.404 302.755 10.662 302.227 10.998L301.561 9.666C302.185 9.246 302.809 8.934 303.433 8.73C304.069 8.526 304.735 8.424 305.431 8.424C306.691 8.424 307.681 8.76 308.401 9.432C309.133 10.092 309.499 11.034 309.499 12.258V15.768C309.499 15.996 309.535 16.158 309.607 16.254C309.691 16.35 309.829 16.404 310.021 16.416V18C309.841 18.036 309.679 18.06 309.535 18.072C309.391 18.084 309.271 18.09 309.175 18.09C308.755 18.09 308.437 17.988 308.221 17.784C308.005 17.58 307.879 17.34 307.843 17.064L307.789 16.524C307.381 17.052 306.859 17.46 306.223 17.748C305.587 18.036 304.945 18.18 304.297 18.18C303.673 18.18 303.115 18.054 302.623 17.802C302.131 17.538 301.747 17.184 301.471 16.74C301.195 16.296 301.057 15.798 301.057 15.246ZM307.051 15.822C307.195 15.666 307.309 15.51 307.393 15.354C307.477 15.198 307.519 15.06 307.519 14.94V13.86C307.183 13.728 306.829 13.632 306.457 13.572C306.085 13.5 305.719 13.464 305.359 13.464C304.639 13.464 304.051 13.608 303.595 13.896C303.151 14.184 302.929 14.58 302.929 15.084C302.929 15.36 303.001 15.624 303.145 15.876C303.301 16.128 303.517 16.332 303.793 16.488C304.081 16.644 304.435 16.722 304.855 16.722C305.287 16.722 305.701 16.638 306.097 16.47C306.493 16.302 306.811 16.086 307.051 15.822ZM319.498 18.144C318.538 18.144 317.728 17.97 317.068 17.622C316.42 17.262 315.922 16.77 315.574 16.146L317.176 15.426C317.38 15.774 317.668 16.05 318.04 16.254C318.412 16.446 318.862 16.542 319.39 16.542C320.026 16.542 320.518 16.41 320.866 16.146C321.214 15.882 321.388 15.534 321.388 15.102C321.388 14.706 321.244 14.388 320.956 14.148C320.668 13.896 320.26 13.764 319.732 13.752H318.76V12.492H319.768C320.008 12.492 320.218 12.438 320.398 12.33C320.578 12.222 320.716 12.078 320.812 11.898C320.92 11.706 320.974 11.49 320.974 11.25C320.974 10.89 320.836 10.602 320.56 10.386C320.296 10.158 319.894 10.044 319.354 10.044C318.886 10.044 318.502 10.134 318.202 10.314C317.902 10.482 317.656 10.734 317.464 11.07L315.97 10.278C316.282 9.702 316.738 9.252 317.338 8.928C317.938 8.604 318.64 8.442 319.444 8.442C320.08 8.442 320.644 8.544 321.136 8.748C321.64 8.94 322.03 9.228 322.306 9.612C322.594 9.984 322.738 10.446 322.738 10.998C322.738 11.43 322.636 11.838 322.432 12.222C322.228 12.594 321.91 12.87 321.478 13.05C322.054 13.218 322.486 13.512 322.774 13.932C323.074 14.34 323.224 14.826 323.224 15.39C323.224 15.966 323.062 16.464 322.738 16.884C322.426 17.292 321.988 17.604 321.424 17.82C320.86 18.036 320.218 18.144 319.498 18.144ZM324.365 15.246C324.365 14.646 324.533 14.124 324.869 13.68C325.217 13.224 325.691 12.876 326.291 12.636C326.891 12.384 327.587 12.258 328.379 12.258C328.799 12.258 329.225 12.288 329.657 12.348C330.101 12.408 330.491 12.504 330.827 12.636V12.042C330.827 11.382 330.629 10.866 330.233 10.494C329.837 10.122 329.267 9.936 328.523 9.936C327.995 9.936 327.497 10.032 327.029 10.224C326.561 10.404 326.063 10.662 325.535 10.998L324.869 9.666C325.493 9.246 326.117 8.934 326.741 8.73C327.377 8.526 328.043 8.424 328.739 8.424C329.999 8.424 330.989 8.76 331.709 9.432C332.441 10.092 332.807 11.034 332.807 12.258V15.768C332.807 15.996 332.843 16.158 332.915 16.254C332.999 16.35 333.137 16.404 333.329 16.416V18C333.149 18.036 332.987 18.06 332.843 18.072C332.699 18.084 332.579 18.09 332.483 18.09C332.063 18.09 331.745 17.988 331.529 17.784C331.313 17.58 331.187 17.34 331.151 17.064L331.097 16.524C330.689 17.052 330.167 17.46 329.531 17.748C328.895 18.036 328.253 18.18 327.605 18.18C326.981 18.18 326.423 18.054 325.931 17.802C325.439 17.538 325.055 17.184 324.779 16.74C324.503 16.296 324.365 15.798 324.365 15.246ZM330.359 15.822C330.503 15.666 330.617 15.51 330.701 15.354C330.785 15.198 330.827 15.06 330.827 14.94V13.86C330.491 13.728 330.137 13.632 329.765 13.572C329.393 13.5 329.027 13.464 328.667 13.464C327.947 13.464 327.359 13.608 326.903 13.896C326.459 14.184 326.237 14.58 326.237 15.084C326.237 15.36 326.309 15.624 326.453 15.876C326.609 16.128 326.825 16.332 327.101 16.488C327.389 16.644 327.743 16.722 328.163 16.722C328.595 16.722 329.009 16.638 329.405 16.47C329.801 16.302 330.119 16.086 330.359 15.822ZM334.615 18L337.135 14.274C336.547 14.13 336.079 13.83 335.731 13.374C335.383 12.918 335.209 12.306 335.209 11.538C335.209 10.95 335.341 10.434 335.605 9.99C335.881 9.546 336.265 9.198 336.757 8.946C337.249 8.694 337.819 8.568 338.467 8.568H342.607V18H340.627V14.598H339.079L336.775 18H334.615ZM338.665 13.158H340.627V10.098H338.791C338.287 10.098 337.885 10.236 337.585 10.512C337.297 10.788 337.153 11.148 337.153 11.592C337.153 12.036 337.279 12.408 337.531 12.708C337.795 13.008 338.173 13.158 338.665 13.158ZM345 18V8.586H350.041C350.641 8.586 351.133 8.7 351.517 8.928C351.913 9.144 352.207 9.426 352.399 9.774C352.591 10.11 352.687 10.482 352.687 10.89C352.687 11.406 352.567 11.862 352.327 12.258C352.087 12.654 351.733 12.954 351.265 13.158C351.805 13.314 352.243 13.59 352.579 13.986C352.927 14.37 353.101 14.868 353.101 15.48C353.101 16.032 352.969 16.5 352.705 16.884C352.441 17.256 352.063 17.538 351.571 17.73C351.091 17.91 350.527 18 349.879 18H345ZM346.873 16.632H349.825C350.077 16.632 350.305 16.572 350.509 16.452C350.725 16.32 350.893 16.152 351.013 15.948C351.133 15.732 351.193 15.504 351.193 15.264C351.193 15 351.133 14.766 351.013 14.562C350.905 14.358 350.749 14.196 350.545 14.076C350.353 13.956 350.125 13.896 349.861 13.896H346.873V16.632ZM346.873 12.618H349.537C349.789 12.618 350.011 12.558 350.203 12.438C350.395 12.306 350.545 12.132 350.653 11.916C350.761 11.7 350.815 11.472 350.815 11.232C350.815 10.884 350.701 10.584 350.473 10.332C350.245 10.08 349.945 9.954 349.573 9.954H346.873V12.618ZM359.215 18.18C358.471 18.18 357.805 18.054 357.217 17.802C356.629 17.538 356.119 17.178 355.687 16.722C355.267 16.266 354.943 15.75 354.715 15.174C354.487 14.586 354.373 13.962 354.373 13.302C354.373 12.642 354.487 12.018 354.715 11.43C354.943 10.842 355.267 10.326 355.687 9.882C356.119 9.426 356.629 9.072 357.217 8.82C357.817 8.556 358.483 8.424 359.215 8.424C359.947 8.424 360.607 8.556 361.195 8.82C361.795 9.072 362.305 9.426 362.725 9.882C363.157 10.326 363.487 10.842 363.715 11.43C363.943 12.018 364.057 12.642 364.057 13.302C364.057 13.962 363.943 14.586 363.715 15.174C363.487 15.75 363.157 16.266 362.725 16.722C362.305 17.178 361.795 17.538 361.195 17.802C360.607 18.054 359.947 18.18 359.215 18.18ZM356.407 13.32C356.407 13.92 356.533 14.46 356.785 14.94C357.037 15.42 357.373 15.798 357.793 16.074C358.213 16.35 358.687 16.488 359.215 16.488C359.731 16.488 360.199 16.35 360.619 16.074C361.051 15.786 361.393 15.402 361.645 14.922C361.897 14.43 362.023 13.89 362.023 13.302C362.023 12.702 361.897 12.162 361.645 11.682C361.393 11.202 361.051 10.824 360.619 10.548C360.199 10.26 359.731 10.116 359.215 10.116C358.687 10.116 358.213 10.26 357.793 10.548C357.373 10.836 357.037 11.22 356.785 11.7C356.533 12.168 356.407 12.708 356.407 13.32ZM365.813 18V8.586H367.775V12.312H368.711L371.483 8.586H373.679L370.241 13.14L374.075 18H371.789L368.693 14.094H367.775V18H365.813Z" fill="white"/>
<rect x="0.5" y="39.5" width="55" height="49" rx="7.5" stroke="#83C1FF"/>
<path d="M21.508 60.744C21.508 59.64 21.78 58.64 22.324 57.744C22.868 56.848 23.604 56.144 24.532 55.632C25.476 55.104 26.524 54.84 27.676 54.84C28.94 54.84 30.028 55.144 30.94 55.752C31.868 56.344 32.588 57.2 33.1 58.32C33.628 59.44 33.892 60.792 33.892 62.376C33.892 64.552 33.62 66.368 33.076 67.824C32.548 69.28 31.796 70.384 30.82 71.136C29.86 71.872 28.724 72.24 27.412 72.24C26.324 72.24 25.324 71.992 24.412 71.496C23.5 70.984 22.764 70.272 22.204 69.36L23.764 67.728C24.132 68.384 24.644 68.912 25.3 69.312C25.956 69.712 26.668 69.912 27.436 69.912C28.236 69.912 28.932 69.688 29.524 69.24C30.116 68.792 30.58 68.136 30.916 67.272C31.252 66.392 31.42 65.344 31.42 64.128C31.196 64.592 30.884 65 30.484 65.352C30.084 65.704 29.62 65.976 29.092 66.168C28.58 66.36 28.02 66.456 27.412 66.456C26.324 66.456 25.324 66.2 24.412 65.688C23.516 65.176 22.804 64.488 22.276 63.624C21.764 62.76 21.508 61.8 21.508 60.744ZM27.652 57.072C26.996 57.072 26.396 57.24 25.852 57.576C25.308 57.896 24.868 58.336 24.532 58.896C24.212 59.456 24.052 60.064 24.052 60.72C24.052 61.376 24.212 61.976 24.532 62.52C24.868 63.064 25.308 63.504 25.852 63.84C26.412 64.16 27.02 64.32 27.676 64.32C28.332 64.32 28.932 64.16 29.476 63.84C30.036 63.504 30.476 63.064 30.796 62.52C31.132 61.976 31.3 61.384 31.3 60.744C31.3 60.072 31.132 59.464 30.796 58.92C30.46 58.36 30.012 57.912 29.452 57.576C28.908 57.24 28.308 57.072 27.652 57.072Z" fill="white"/>
<rect x="60.5" y="39.5" width="55" height="49" rx="7.5" stroke="#83C1FF"/>
<path d="M93.796 67.08C93.796 68.104 93.516 69 92.956 69.768C92.412 70.536 91.668 71.136 90.724 71.568C89.796 71.984 88.78 72.192 87.676 72.192C86.54 72.192 85.516 71.968 84.604 71.52C83.692 71.056 82.964 70.432 82.42 69.648C81.876 68.864 81.604 67.968 81.604 66.96C81.604 66.288 81.756 65.688 82.06 65.16C82.364 64.616 82.74 64.152 83.188 63.768C83.636 63.384 84.092 63.088 84.556 62.88C84.124 62.672 83.724 62.408 83.356 62.088C83.004 61.752 82.716 61.368 82.492 60.936C82.284 60.504 82.18 60.04 82.18 59.544C82.18 58.808 82.34 58.16 82.66 57.6C82.996 57.024 83.436 56.544 83.98 56.16C84.524 55.76 85.116 55.464 85.756 55.272C86.412 55.064 87.06 54.96 87.7 54.96C88.356 54.96 89.004 55.064 89.644 55.272C90.3 55.464 90.9 55.752 91.444 56.136C92.004 56.52 92.444 57 92.764 57.576C93.1 58.136 93.268 58.784 93.268 59.52C93.268 60.016 93.156 60.488 92.932 60.936C92.724 61.368 92.428 61.752 92.044 62.088C91.676 62.424 91.276 62.688 90.844 62.88C91.356 63.104 91.836 63.416 92.284 63.816C92.748 64.216 93.116 64.688 93.388 65.232C93.66 65.776 93.796 66.392 93.796 67.08ZM91.132 66.912C91.132 66.448 91.028 66.032 90.82 65.664C90.628 65.296 90.364 64.992 90.028 64.752C89.692 64.496 89.324 64.304 88.924 64.176C88.524 64.048 88.116 63.984 87.7 63.984C87.108 63.984 86.556 64.104 86.044 64.344C85.532 64.584 85.116 64.928 84.796 65.376C84.476 65.808 84.316 66.32 84.316 66.912C84.316 67.36 84.412 67.768 84.604 68.136C84.796 68.488 85.052 68.792 85.372 69.048C85.708 69.304 86.076 69.496 86.476 69.624C86.892 69.752 87.308 69.816 87.724 69.816C88.3 69.816 88.844 69.696 89.356 69.456C89.884 69.2 90.308 68.856 90.628 68.424C90.964 67.976 91.132 67.472 91.132 66.912ZM84.844 59.64C84.844 60.136 84.988 60.56 85.276 60.912C85.564 61.264 85.932 61.528 86.38 61.704C86.828 61.88 87.268 61.968 87.7 61.968C88.148 61.968 88.588 61.88 89.02 61.704C89.468 61.512 89.836 61.24 90.124 60.888C90.428 60.536 90.58 60.104 90.58 59.592C90.58 59.128 90.444 58.728 90.172 58.392C89.9 58.04 89.54 57.776 89.092 57.6C88.66 57.408 88.196 57.312 87.7 57.312C87.204 57.312 86.732 57.408 86.284 57.6C85.852 57.792 85.5 58.064 85.228 58.416C84.972 58.752 84.844 59.16 84.844 59.64Z" fill="white"/>
<path d="M38.108 116.176V113.008H38.588C38.8867 113.008 39.148 112.885 39.372 112.64C39.6067 112.395 39.804 112 39.964 111.456C40.1347 110.901 40.268 110.16 40.364 109.232C40.4707 108.304 40.5453 107.152 40.588 105.776L40.668 102.64H47.468V113.008H48.828V116.176H47.836V114H39.1V116.176H38.108ZM40.188 113.008H46.348V103.632H41.692L41.628 105.904C41.596 107.344 41.5213 108.549 41.404 109.52C41.2973 110.48 41.1427 111.243 40.94 111.808C40.7373 112.363 40.4867 112.763 40.188 113.008ZM50.6684 114V105.664H51.7564V109.248H56.5244V105.664H57.6124V114H56.5244V110.224H51.7564V114H50.6684ZM63.6125 114.16C63.0152 114.16 62.4605 114.048 61.9485 113.824C61.4365 113.589 60.9938 113.275 60.6205 112.88C60.2472 112.475 59.9538 112.011 59.7405 111.488C59.5378 110.965 59.4365 110.405 59.4365 109.808C59.4365 109.029 59.6125 108.315 59.9645 107.664C60.3272 107.013 60.8232 106.496 61.4525 106.112C62.0818 105.717 62.7965 105.52 63.5965 105.52C64.4178 105.52 65.1325 105.717 65.7405 106.112C66.3592 106.507 66.8445 107.029 67.1965 107.68C67.5485 108.32 67.7245 109.024 67.7245 109.792C67.7245 109.877 67.7245 109.963 67.7245 110.048C67.7245 110.123 67.7192 110.181 67.7085 110.224H60.5725C60.6258 110.821 60.7912 111.355 61.0685 111.824C61.3565 112.283 61.7245 112.651 62.1725 112.928C62.6312 113.195 63.1272 113.328 63.6605 113.328C64.2045 113.328 64.7165 113.189 65.1965 112.912C65.6872 112.635 66.0285 112.272 66.2205 111.824L67.1645 112.08C66.9938 112.475 66.7325 112.832 66.3805 113.152C66.0285 113.472 65.6125 113.723 65.1325 113.904C64.6632 114.075 64.1565 114.16 63.6125 114.16ZM60.5405 109.44H66.7005C66.6578 108.832 66.4925 108.299 66.2045 107.84C65.9272 107.381 65.5592 107.024 65.1005 106.768C64.6525 106.501 64.1565 106.368 63.6125 106.368C63.0685 106.368 62.5725 106.501 62.1245 106.768C61.6765 107.024 61.3085 107.387 61.0205 107.856C60.7432 108.315 60.5832 108.843 60.5405 109.44ZM69.3871 114V105.68H70.4751V112.528L75.5471 105.664H76.5231V114H75.4351V107.264L70.4431 114H69.3871ZM72.9711 104.608C72.2458 104.608 71.6858 104.437 71.2911 104.096C70.8965 103.755 70.6991 103.323 70.6991 102.8H71.4991C71.4991 103.12 71.6165 103.387 71.8511 103.6C72.0965 103.813 72.4698 103.92 72.9711 103.92C73.4618 103.92 73.8191 103.819 74.0431 103.616C74.2778 103.413 74.4111 103.141 74.4431 102.8H75.2271C75.2271 103.323 75.0298 103.755 74.6351 104.096C74.2405 104.437 73.6858 104.608 72.9711 104.608Z" fill="#CCE8FF"/>
<rect x="140.5" y="39.5" width="55" height="49" rx="7.5" stroke="#83C1FF"/>
<path d="M172.632 69.624V72H163.584V69.624H166.872V57.48C166.744 57.672 166.528 57.888 166.224 58.128C165.936 58.352 165.608 58.576 165.24 58.8C164.872 59.008 164.488 59.184 164.088 59.328C163.704 59.472 163.352 59.544 163.032 59.544V57.096C163.464 57.096 163.896 56.984 164.328 56.76C164.776 56.536 165.192 56.28 165.576 55.992C165.96 55.688 166.264 55.416 166.488 55.176C166.728 54.936 166.856 54.808 166.872 54.792H169.584V69.624H172.632Z" fill="white"/>
<rect x="200.5" y="39.5" width="55" height="49" rx="7.5" stroke="#83C1FF"/>
<path d="M233.796 67.08C233.796 68.104 233.516 69 232.956 69.768C232.412 70.536 231.668 71.136 230.724 71.568C229.796 71.984 228.78 72.192 227.676 72.192C226.54 72.192 225.516 71.968 224.604 71.52C223.692 71.056 222.964 70.432 222.42 69.648C221.876 68.864 221.604 67.968 221.604 66.96C221.604 66.288 221.756 65.688 222.06 65.16C222.364 64.616 222.74 64.152 223.188 63.768C223.636 63.384 224.092 63.088 224.556 62.88C224.124 62.672 223.724 62.408 223.356 62.088C223.004 61.752 222.716 61.368 222.492 60.936C222.284 60.504 222.18 60.04 222.18 59.544C222.18 58.808 222.34 58.16 222.66 57.6C222.996 57.024 223.436 56.544 223.98 56.16C224.524 55.76 225.116 55.464 225.756 55.272C226.412 55.064 227.06 54.96 227.7 54.96C228.356 54.96 229.004 55.064 229.644 55.272C230.3 55.464 230.9 55.752 231.444 56.136C232.004 56.52 232.444 57 232.764 57.576C233.1 58.136 233.268 58.784 233.268 59.52C233.268 60.016 233.156 60.488 232.932 60.936C232.724 61.368 232.428 61.752 232.044 62.088C231.676 62.424 231.276 62.688 230.844 62.88C231.356 63.104 231.836 63.416 232.284 63.816C232.748 64.216 233.116 64.688 233.388 65.232C233.66 65.776 233.796 66.392 233.796 67.08ZM231.132 66.912C231.132 66.448 231.028 66.032 230.82 65.664C230.628 65.296 230.364 64.992 230.028 64.752C229.692 64.496 229.324 64.304 228.924 64.176C228.524 64.048 228.116 63.984 227.7 63.984C227.108 63.984 226.556 64.104 226.044 64.344C225.532 64.584 225.116 64.928 224.796 65.376C224.476 65.808 224.316 66.32 224.316 66.912C224.316 67.36 224.412 67.768 224.604 68.136C224.796 68.488 225.052 68.792 225.372 69.048C225.708 69.304 226.076 69.496 226.476 69.624C226.892 69.752 227.308 69.816 227.724 69.816C228.3 69.816 228.844 69.696 229.356 69.456C229.884 69.2 230.308 68.856 230.628 68.424C230.964 67.976 231.132 67.472 231.132 66.912ZM224.844 59.64C224.844 60.136 224.988 60.56 225.276 60.912C225.564 61.264 225.932 61.528 226.38 61.704C226.828 61.88 227.268 61.968 227.7 61.968C228.148 61.968 228.588 61.88 229.02 61.704C229.468 61.512 229.836 61.24 230.124 60.888C230.428 60.536 230.58 60.104 230.58 59.592C230.58 59.128 230.444 58.728 230.172 58.392C229.9 58.04 229.54 57.776 229.092 57.6C228.66 57.408 228.196 57.312 227.7 57.312C227.204 57.312 226.732 57.408 226.284 57.6C225.852 57.792 225.5 58.064 225.228 58.416C224.972 58.752 224.844 59.16 224.844 59.64Z" fill="white"/>
<path d="M182.776 114V109.104C182.541 109.211 182.269 109.312 181.96 109.408C181.651 109.504 181.315 109.584 180.952 109.648C180.589 109.701 180.2 109.728 179.784 109.728C178.525 109.728 177.597 109.456 177 108.912C176.403 108.357 176.104 107.483 176.104 106.288V102.64H177.192V106.16C177.192 107.045 177.405 107.691 177.832 108.096C178.269 108.501 178.973 108.704 179.944 108.704C180.488 108.704 181.016 108.645 181.528 108.528C182.051 108.411 182.467 108.267 182.776 108.096V102.64H183.864V114H182.776ZM185.825 111.6C185.825 111.077 185.974 110.629 186.273 110.256C186.572 109.872 186.982 109.579 187.505 109.376C188.038 109.163 188.652 109.056 189.345 109.056C189.75 109.056 190.172 109.088 190.609 109.152C191.046 109.216 191.436 109.312 191.777 109.44V108.736C191.777 108.032 191.569 107.472 191.153 107.056C190.737 106.64 190.161 106.432 189.425 106.432C188.977 106.432 188.534 106.517 188.097 106.688C187.67 106.848 187.222 107.088 186.753 107.408L186.337 106.64C186.881 106.267 187.414 105.989 187.937 105.808C188.46 105.616 188.993 105.52 189.537 105.52C190.561 105.52 191.372 105.813 191.969 106.4C192.566 106.987 192.865 107.797 192.865 108.832V112.688C192.865 112.837 192.897 112.949 192.961 113.024C193.025 113.088 193.126 113.125 193.265 113.136V114C193.148 114.011 193.046 114.021 192.961 114.032C192.876 114.043 192.812 114.043 192.769 114.032C192.502 114.021 192.3 113.936 192.161 113.776C192.022 113.616 191.948 113.445 191.937 113.264L191.921 112.656C191.548 113.136 191.062 113.509 190.465 113.776C189.868 114.032 189.26 114.16 188.641 114.16C188.108 114.16 187.622 114.048 187.185 113.824C186.758 113.589 186.422 113.28 186.177 112.896C185.942 112.501 185.825 112.069 185.825 111.6ZM191.409 112.24C191.526 112.091 191.617 111.947 191.681 111.808C191.745 111.669 191.777 111.547 191.777 111.44V110.224C191.414 110.085 191.036 109.979 190.641 109.904C190.257 109.829 189.868 109.792 189.473 109.792C188.694 109.792 188.065 109.947 187.585 110.256C187.105 110.565 186.865 110.987 186.865 111.52C186.865 111.829 186.945 112.123 187.105 112.4C187.265 112.667 187.5 112.891 187.809 113.072C188.118 113.243 188.481 113.328 188.897 113.328C189.42 113.328 189.905 113.227 190.353 113.024C190.812 112.821 191.164 112.56 191.409 112.24ZM198.832 114.16C198.224 114.16 197.664 114.048 197.152 113.824C196.65 113.589 196.208 113.269 195.824 112.864C195.45 112.459 195.157 111.995 194.944 111.472C194.741 110.949 194.64 110.395 194.64 109.808C194.64 109.019 194.816 108.299 195.168 107.648C195.52 106.997 196.01 106.48 196.64 106.096C197.269 105.712 197.994 105.52 198.816 105.52C199.594 105.52 200.282 105.701 200.88 106.064C201.477 106.416 201.92 106.896 202.208 107.504L201.152 107.84C200.917 107.413 200.586 107.083 200.16 106.848C199.744 106.603 199.28 106.48 198.768 106.48C198.213 106.48 197.706 106.624 197.248 106.912C196.789 107.2 196.421 107.595 196.144 108.096C195.877 108.597 195.744 109.168 195.744 109.808C195.744 110.437 195.882 111.008 196.16 111.52C196.437 112.032 196.805 112.443 197.264 112.752C197.722 113.051 198.229 113.2 198.784 113.2C199.146 113.2 199.493 113.136 199.824 113.008C200.165 112.88 200.458 112.709 200.704 112.496C200.96 112.272 201.13 112.032 201.216 111.776L202.288 112.096C202.138 112.491 201.888 112.848 201.536 113.168C201.194 113.477 200.789 113.723 200.32 113.904C199.861 114.075 199.365 114.16 198.832 114.16ZM207.471 114.16C206.873 114.16 206.319 114.048 205.807 113.824C205.305 113.589 204.868 113.275 204.495 112.88C204.132 112.475 203.849 112.016 203.647 111.504C203.444 110.981 203.343 110.432 203.343 109.856C203.343 109.259 203.444 108.704 203.647 108.192C203.849 107.669 204.137 107.211 204.511 106.816C204.884 106.411 205.321 106.096 205.823 105.872C206.335 105.637 206.889 105.52 207.487 105.52C208.084 105.52 208.633 105.637 209.135 105.872C209.636 106.096 210.073 106.411 210.447 106.816C210.82 107.211 211.108 107.669 211.311 108.192C211.513 108.704 211.615 109.259 211.615 109.856C211.615 110.432 211.513 110.981 211.311 111.504C211.108 112.016 210.82 112.475 210.447 112.88C210.084 113.275 209.647 113.589 209.135 113.824C208.633 114.048 208.079 114.16 207.471 114.16ZM204.447 109.872C204.447 110.491 204.58 111.056 204.847 111.568C205.124 112.069 205.492 112.469 205.951 112.768C206.409 113.056 206.916 113.2 207.471 113.2C208.025 113.2 208.532 113.051 208.991 112.752C209.449 112.453 209.817 112.048 210.095 111.536C210.372 111.013 210.511 110.448 210.511 109.84C210.511 109.221 210.372 108.656 210.095 108.144C209.817 107.632 209.449 107.227 208.991 106.928C208.532 106.629 208.025 106.48 207.471 106.48C206.916 106.48 206.409 106.635 205.951 106.944C205.503 107.253 205.14 107.664 204.863 108.176C204.585 108.677 204.447 109.243 204.447 109.872ZM213.418 114V105.664H217.578C218.048 105.664 218.442 105.765 218.762 105.968C219.082 106.16 219.322 106.411 219.482 106.72C219.653 107.029 219.738 107.36 219.738 107.712C219.738 108.16 219.632 108.565 219.418 108.928C219.205 109.28 218.896 109.547 218.49 109.728C218.97 109.867 219.36 110.117 219.658 110.48C219.957 110.843 220.106 111.28 220.106 111.792C220.106 112.24 219.994 112.629 219.77 112.96C219.557 113.291 219.258 113.547 218.874 113.728C218.501 113.909 218.069 114 217.578 114H213.418ZM214.458 113.216H217.546C217.824 113.216 218.074 113.147 218.298 113.008C218.533 112.859 218.714 112.667 218.842 112.432C218.981 112.197 219.05 111.952 219.05 111.696C219.05 111.419 218.986 111.168 218.858 110.944C218.73 110.709 218.56 110.523 218.346 110.384C218.133 110.245 217.888 110.176 217.61 110.176H214.458V113.216ZM214.458 109.424H217.29C217.568 109.424 217.813 109.349 218.026 109.2C218.24 109.051 218.405 108.859 218.522 108.624C218.64 108.389 218.698 108.144 218.698 107.888C218.698 107.504 218.57 107.168 218.314 106.88C218.069 106.592 217.749 106.448 217.354 106.448H214.458V109.424Z" fill="#CCE8FF"/>
<rect x="280.5" y="39.5" width="55" height="49" rx="7.5" stroke="#83C1FF"/>
<path d="M309.256 72V67.872H301.648V65.52L310.072 54.96H311.896V65.496H314.008V67.872H311.896V72H309.256ZM304.336 65.496H309.544V58.968L304.336 65.496Z" fill="white"/>
<rect x="340.5" y="39.5" width="55" height="49" rx="7.5" stroke="#83C1FF"/>
<path d="M367.432 72.24C366.2 72.24 365.096 71.968 364.12 71.424C363.16 70.864 362.416 70.104 361.888 69.144L363.472 67.632C363.92 68.32 364.496 68.872 365.2 69.288C365.904 69.688 366.656 69.888 367.456 69.888C368.112 69.888 368.696 69.752 369.208 69.48C369.72 69.192 370.12 68.8 370.408 68.304C370.712 67.808 370.864 67.232 370.864 66.576C370.864 65.936 370.72 65.376 370.432 64.896C370.16 64.4 369.776 64.016 369.28 63.744C368.8 63.472 368.256 63.336 367.648 63.336C367.04 63.336 366.464 63.472 365.92 63.744C365.392 64.016 364.968 64.4 364.648 64.896H362.296L364.24 54.96H372.568V57.384H366.16L365.296 62.016C365.584 61.728 365.952 61.496 366.4 61.32C366.864 61.144 367.392 61.056 367.984 61.056C369.056 61.056 370.008 61.288 370.84 61.752C371.688 62.216 372.352 62.856 372.832 63.672C373.328 64.488 373.576 65.432 373.576 66.504C373.576 67.64 373.304 68.64 372.76 69.504C372.216 70.352 371.48 71.024 370.552 71.52C369.64 72 368.6 72.24 367.432 72.24Z" fill="white"/>
<path d="M324.988 114V104.752L320.876 111.936H320.172L316.044 104.752V114H314.924V102.64H316.076L320.508 110.416L324.972 102.64H326.108V114H324.988ZM328.715 114V105.68H329.803V112.528L334.875 105.664H335.851V114H334.763V107.264L329.771 114H328.715ZM338.215 114V105.664H339.303V109.248H344.071V105.664H345.159V114H344.071V110.224H339.303V114H338.215ZM348.299 117.488C348.118 117.488 347.932 117.456 347.74 117.392C347.558 117.339 347.372 117.259 347.18 117.152L347.58 116.384C347.697 116.448 347.804 116.501 347.9 116.544C348.006 116.587 348.118 116.608 348.236 116.608C348.513 116.608 348.774 116.469 349.02 116.192C349.265 115.915 349.5 115.509 349.724 114.976L350.14 113.936L346.428 105.664H347.58L350.636 112.88L353.452 105.664H354.54L350.572 115.312C350.358 115.813 350.134 116.224 349.9 116.544C349.665 116.864 349.414 117.099 349.148 117.248C348.881 117.408 348.598 117.488 348.299 117.488ZM358.139 114V106.64H355.163V105.664H362.203V106.64H359.227V114H358.139Z" fill="#CCE8FF"/>
<rect x="420.5" y="39.5" width="55" height="49" rx="7.5" stroke="#83C1FF"/>
<path d="M452.632 69.624V72H443.584V69.624H446.872V57.48C446.744 57.672 446.528 57.888 446.224 58.128C445.936 58.352 445.608 58.576 445.24 58.8C444.872 59.008 444.488 59.184 444.088 59.328C443.704 59.472 443.352 59.544 443.032 59.544V57.096C443.464 57.096 443.896 56.984 444.328 56.76C444.776 56.536 445.192 56.28 445.576 55.992C445.96 55.688 446.264 55.416 446.488 55.176C446.728 54.936 446.856 54.808 446.872 54.792H449.584V69.624H452.632Z" fill="white"/>
<rect x="480.5" y="39.5" width="55" height="49" rx="7.5" stroke="#83C1FF"/>
<path d="M512.632 69.624V72H503.584V69.624H506.872V57.48C506.744 57.672 506.528 57.888 506.224 58.128C505.936 58.352 505.608 58.576 505.24 58.8C504.872 59.008 504.488 59.184 504.088 59.328C503.704 59.472 503.352 59.544 503.032 59.544V57.096C503.464 57.096 503.896 56.984 504.328 56.76C504.776 56.536 505.192 56.28 505.576 55.992C505.96 55.688 506.264 55.416 506.488 55.176C506.728 54.936 506.856 54.808 506.872 54.792H509.584V69.624H512.632Z" fill="white"/>
<path d="M450.672 108.24C450.672 107.547 450.789 106.869 451.024 106.208C451.269 105.536 451.621 104.928 452.08 104.384C452.539 103.829 453.104 103.392 453.776 103.072C454.448 102.741 455.211 102.576 456.064 102.576C457.077 102.576 457.941 102.811 458.656 103.28C459.381 103.739 459.915 104.331 460.256 105.056L459.376 105.6C459.131 105.099 458.821 104.704 458.448 104.416C458.075 104.117 457.675 103.904 457.248 103.776C456.832 103.648 456.416 103.584 456 103.584C455.317 103.584 454.715 103.723 454.192 104C453.669 104.267 453.227 104.629 452.864 105.088C452.512 105.536 452.245 106.043 452.064 106.608C451.883 107.163 451.792 107.728 451.792 108.304C451.792 108.933 451.899 109.536 452.112 110.112C452.325 110.688 452.624 111.2 453.008 111.648C453.392 112.085 453.84 112.437 454.352 112.704C454.875 112.96 455.44 113.088 456.048 113.088C456.475 113.088 456.912 113.013 457.36 112.864C457.808 112.715 458.224 112.485 458.608 112.176C459.003 111.867 459.317 111.467 459.552 110.976L460.48 111.456C460.245 112.021 459.883 112.501 459.392 112.896C458.901 113.291 458.352 113.589 457.744 113.792C457.147 113.995 456.56 114.096 455.984 114.096C455.205 114.096 454.491 113.931 453.84 113.6C453.189 113.259 452.624 112.811 452.144 112.256C451.675 111.691 451.312 111.061 451.056 110.368C450.8 109.664 450.672 108.955 450.672 108.24ZM465.769 114.16C465.171 114.16 464.617 114.048 464.105 113.824C463.593 113.589 463.15 113.275 462.777 112.88C462.403 112.475 462.11 112.011 461.897 111.488C461.694 110.965 461.593 110.405 461.593 109.808C461.593 109.029 461.769 108.315 462.121 107.664C462.483 107.013 462.979 106.496 463.609 106.112C464.238 105.717 464.953 105.52 465.753 105.52C466.574 105.52 467.289 105.717 467.897 106.112C468.515 106.507 469.001 107.029 469.353 107.68C469.705 108.32 469.881 109.024 469.881 109.792C469.881 109.877 469.881 109.963 469.881 110.048C469.881 110.123 469.875 110.181 469.865 110.224H462.729C462.782 110.821 462.947 111.355 463.225 111.824C463.513 112.283 463.881 112.651 464.329 112.928C464.787 113.195 465.283 113.328 465.817 113.328C466.361 113.328 466.873 113.189 467.353 112.912C467.843 112.635 468.185 112.272 468.377 111.824L469.321 112.08C469.15 112.475 468.889 112.832 468.537 113.152C468.185 113.472 467.769 113.723 467.289 113.904C466.819 114.075 466.313 114.16 465.769 114.16ZM462.697 109.44H468.857C468.814 108.832 468.649 108.299 468.361 107.84C468.083 107.381 467.715 107.024 467.257 106.768C466.809 106.501 466.313 106.368 465.769 106.368C465.225 106.368 464.729 106.501 464.281 106.768C463.833 107.024 463.465 107.387 463.177 107.856C462.899 108.315 462.739 108.843 462.697 109.44ZM471.543 114V105.664H472.631V109.232H473.879L476.679 105.664H477.927L474.743 109.712L478.327 114H477.047L473.879 110.24H472.631V114H471.543ZM480.784 117.488C480.603 117.488 480.416 117.456 480.224 117.392C480.043 117.339 479.856 117.259 479.664 117.152L480.064 116.384C480.181 116.448 480.288 116.501 480.384 116.544C480.491 116.587 480.603 116.608 480.72 116.608C480.997 116.608 481.259 116.469 481.504 116.192C481.749 115.915 481.984 115.509 482.208 114.976L482.624 113.936L478.912 105.664H480.064L483.12 112.88L485.936 105.664H487.024L483.056 115.312C482.843 115.813 482.619 116.224 482.384 116.544C482.149 116.864 481.899 117.099 481.632 117.248C481.365 117.408 481.083 117.488 480.784 117.488ZM488.528 114V105.664H489.616V109.248H494.384V105.664H495.472V114H494.384V110.224H489.616V114H488.528ZM496.944 115.936V113.024H497.088C497.333 113.024 497.557 112.949 497.76 112.8C497.963 112.651 498.144 112.389 498.304 112.016C498.464 111.643 498.592 111.131 498.688 110.48C498.784 109.819 498.848 108.987 498.88 107.984L498.96 105.664H504.384V113.024H505.504V115.936H504.528V114H497.904V115.936H496.944ZM498.736 113.024H503.296V106.64H499.936L499.888 108.08C499.856 109.072 499.787 109.904 499.68 110.576C499.584 111.237 499.456 111.765 499.296 112.16C499.147 112.544 498.96 112.832 498.736 113.024Z" fill="#CCE8FF"/>
</svg>
