<svg width="200" height="50" viewBox="0 0 200 50" fill="none" xmlns="http://www.w3.org/2000/svg">
<path d="M7.974 29.718V31.5H1.188V29.718H3.654V20.61C3.558 20.754 3.396 20.916 3.168 21.096C2.952 21.264 2.706 21.432 2.43 21.6C2.154 21.756 1.866 21.888 1.566 21.996C1.278 22.104 1.014 22.158 0.774 22.158V20.322C1.098 20.322 1.422 20.238 1.746 20.07C2.082 19.902 2.394 19.71 2.682 19.494C2.97 19.266 3.198 19.062 3.366 18.882C3.546 18.702 3.642 18.606 3.654 18.594H5.688V29.718H7.974Z" fill="white"/>
<rect x="17" y="24.5" width="24" height="1" fill="#E3EAF7"/>
<path d="M49.792 31.5C49.792 30.768 49.846 30.126 49.954 29.574C50.062 29.022 50.23 28.524 50.458 28.08C50.686 27.636 50.974 27.246 51.322 26.91C51.67 26.574 52.072 26.268 52.528 25.992C52.972 25.728 53.428 25.482 53.896 25.254C54.376 25.026 54.82 24.786 55.228 24.534C55.636 24.282 55.96 23.988 56.2 23.652C56.452 23.304 56.578 22.884 56.578 22.392C56.578 21.996 56.494 21.648 56.326 21.348C56.17 21.048 55.93 20.814 55.606 20.646C55.294 20.466 54.892 20.376 54.4 20.376C53.896 20.376 53.428 20.466 52.996 20.646C52.576 20.814 52.204 21.024 51.88 21.276C51.568 21.528 51.316 21.774 51.124 22.014L49.864 20.7C49.984 20.556 50.176 20.364 50.44 20.124C50.716 19.884 51.052 19.644 51.448 19.404C51.856 19.164 52.324 18.966 52.852 18.81C53.38 18.642 53.974 18.558 54.634 18.558C55.546 18.558 56.308 18.726 56.92 19.062C57.544 19.386 58.012 19.836 58.324 20.412C58.648 20.976 58.81 21.612 58.81 22.32C58.81 22.896 58.708 23.4 58.504 23.832C58.3 24.252 58.03 24.618 57.694 24.93C57.37 25.23 57.004 25.5 56.596 25.74C56.2 25.98 55.804 26.208 55.408 26.424C54.724 26.772 54.172 27.084 53.752 27.36C53.344 27.636 53.02 27.9 52.78 28.152C52.552 28.404 52.39 28.656 52.294 28.908C52.198 29.16 52.132 29.43 52.096 29.718H58.828V31.5H49.792Z" fill="white"/>
<g clip-path="url(#clip0_302_781)">
<rect width="54" height="50" transform="matrix(-1 0 0 1 146 0)" fill="#0063E5"/>
<path fill-rule="evenodd" clip-rule="evenodd" d="M122.962 16.5418L115.349 24.1548C114.882 24.622 114.882 25.3794 115.349 25.8466L122.962 33.4596C123.429 33.9268 124.186 33.9268 124.654 33.4596C125.121 32.9925 125.121 32.235 124.654 31.7678L117.886 25.0007L124.654 18.2336C125.121 17.7664 125.121 17.009 124.654 16.5418C124.186 16.0746 123.429 16.0746 122.962 16.5418Z" fill="#F0F4FA"/>
<rect width="54" height="50" transform="translate(146)" fill="#0063E5"/>
<path fill-rule="evenodd" clip-rule="evenodd" d="M169.038 16.5418L176.651 24.1548C177.118 24.622 177.118 25.3794 176.651 25.8466L169.038 33.4596C168.571 33.9268 167.814 33.9268 167.346 33.4596C166.879 32.9925 166.879 32.235 167.346 31.7678L174.114 25.0007L167.346 18.2336C166.879 17.7664 166.879 17.009 167.346 16.5418C167.814 16.0746 168.571 16.0746 169.038 16.5418Z" fill="#F0F4FA"/>
</g>
<defs>
<clipPath id="clip0_302_781">
<rect x="92" width="108" height="50" rx="25" fill="white"/>
</clipPath>
</defs>
</svg>
