<svg width="137" height="40" viewBox="0 0 137 40" fill="none" xmlns="http://www.w3.org/2000/svg">
<path d="M0.333984 12C0.333984 5.37258 5.70657 0 12.334 0H28.334C34.9614 0 40.334 5.37258 40.334 12V28C40.334 34.6274 34.9614 40 28.334 40H12.334C5.70657 40 0.333984 34.6274 0.333984 28V12Z" fill="#F0F4FA"/>
<path fill-rule="evenodd" clip-rule="evenodd" d="M26.8148 13.6917C27.0207 13.605 27.2461 13.5751 27.4675 13.6051C27.6889 13.6351 27.8983 13.7239 28.0737 13.8622C28.2491 14.0006 28.3843 14.1834 28.4651 14.3917C28.5459 14.6 28.5694 14.8262 28.5331 15.0467L26.6431 26.5108C26.4598 27.6167 25.2465 28.2508 24.2323 27.7C23.384 27.2392 22.124 26.5292 20.9906 25.7883C20.424 25.4175 18.6881 24.23 18.9015 23.385C19.0848 22.6625 22.0015 19.9475 23.6681 18.3333C24.3223 17.6992 24.024 17.3333 23.2515 17.9167C21.3323 19.365 18.2531 21.5675 17.2348 22.1875C16.3365 22.7342 15.8681 22.8275 15.3081 22.7342C14.2865 22.5642 13.339 22.3008 12.5656 21.98C11.5206 21.5467 11.5715 20.11 12.5648 19.6917L26.8148 13.6917Z" fill="#7992B2"/>
<path d="M48.334 12C48.334 5.37258 53.7066 0 60.334 0H76.334C82.9614 0 88.334 5.37258 88.334 12V28C88.334 34.6274 82.9614 40 76.334 40H60.334C53.7066 40 48.334 34.6274 48.334 28V12Z" fill="#F0F4FA"/>
<g clip-path="url(#clip0_667_1204)">
<path fill-rule="evenodd" clip-rule="evenodd" d="M68.3333 11.6665C63.7308 11.6665 60 15.3973 60 19.9998C60 21.5748 60.4375 23.0498 61.1983 24.3065L60.455 26.8332C60.4123 26.9782 60.4095 27.1321 60.4469 27.2787C60.4842 27.4252 60.5604 27.5589 60.6673 27.6659C60.7742 27.7728 60.908 27.8489 61.0545 27.8863C61.201 27.9237 61.3549 27.9209 61.5 27.8782L64.0267 27.1348C65.3256 27.9207 66.8152 28.3352 68.3333 28.3332C72.9358 28.3332 76.6667 24.6023 76.6667 19.9998C76.6667 15.3973 72.9358 11.6665 68.3333 11.6665ZM66.4483 21.8857C68.1342 23.5707 69.7433 23.7932 70.3117 23.814C71.1758 23.8457 72.0175 23.1857 72.345 22.4198C72.3863 22.3246 72.4014 22.2199 72.3885 22.1169C72.3756 22.0138 72.3352 21.9161 72.2717 21.834C71.815 21.2507 71.1975 20.8315 70.5942 20.4148C70.4682 20.3277 70.3134 20.2928 70.1622 20.3173C70.0111 20.3419 69.8753 20.424 69.7833 20.5465L69.2833 21.309C69.257 21.35 69.2161 21.3794 69.1688 21.3912C69.1216 21.4029 69.0716 21.3962 69.0292 21.3723C68.69 21.1782 68.1958 20.8482 67.8408 20.4932C67.4858 20.1382 67.1758 19.6665 67.0017 19.349C66.9801 19.3087 66.9738 19.2619 66.9841 19.2173C66.9944 19.1727 67.0204 19.1333 67.0575 19.1065L67.8275 18.5348C67.9374 18.4393 68.0083 18.3067 68.0267 18.1622C68.0452 18.0178 68.0099 17.8716 67.9275 17.7515C67.5542 17.2048 67.1192 16.5098 66.4883 16.049C66.4069 15.99 66.3116 15.9532 66.2116 15.9423C66.1117 15.9313 66.0106 15.9466 65.9183 15.9865C65.1517 16.3148 64.4883 17.1565 64.52 18.0223C64.5408 18.5907 64.7633 20.1998 66.4483 21.8857Z" fill="#7992B2"/>
</g>
<path d="M96.334 12C96.334 5.37258 101.707 0 108.334 0H124.334C130.961 0 136.334 5.37258 136.334 12V28C136.334 34.6274 130.961 40 124.334 40H108.334C101.707 40 96.334 34.6274 96.334 28V12Z" fill="#F0F4FA"/>
<path d="M123.609 16.0933C123.715 15.7402 123.609 15.4813 123.106 15.4813H121.441C121.017 15.4813 120.824 15.7053 120.718 15.9513C120.718 15.9513 119.871 18.0159 118.671 19.3546C118.284 19.7441 118.107 19.8671 117.896 19.8671C117.79 19.8671 117.637 19.7441 117.637 19.391V16.0933C117.637 15.6696 117.515 15.4813 117.162 15.4813H114.545C114.281 15.4813 114.121 15.6772 114.121 15.864C114.121 16.2649 114.721 16.3576 114.783 17.4874V19.9385C114.783 20.4753 114.686 20.5733 114.474 20.5733C113.909 20.5733 112.537 18.5011 111.722 16.129C111.563 15.6681 111.403 15.4821 110.978 15.4821H109.313C108.837 15.4821 108.742 15.7061 108.742 15.9521C108.742 16.394 109.306 18.5808 111.37 21.4731C112.746 23.4481 114.683 24.5187 116.448 24.5187C117.506 24.5187 117.636 24.281 117.636 23.871V22.3782C117.636 21.9029 117.737 21.8072 118.072 21.8072C118.318 21.8072 118.742 21.9317 119.73 22.8831C120.858 24.0115 121.045 24.518 121.679 24.518H123.343C123.819 24.518 124.056 24.2803 123.92 23.811C123.77 23.344 123.231 22.6645 122.516 21.8603C122.127 21.4017 121.546 20.9082 121.369 20.6614C121.122 20.3432 121.194 20.2027 121.369 19.9203C121.37 19.921 123.398 17.0645 123.609 16.0933Z" fill="#7992B2"/>
<defs>
<clipPath id="clip0_667_1204">
<rect width="20" height="20" fill="white" transform="translate(58.334 10)"/>
</clipPath>
</defs>
</svg>
