<svg width="175" height="60" viewBox="0 0 175 60" fill="none" xmlns="http://www.w3.org/2000/svg">
<path fill-rule="evenodd" clip-rule="evenodd" d="M24.5073 14.6224C25.5314 14.6224 26.5057 14.4066 27.3883 14.0174C30.8952 15.2842 33.4052 18.6765 33.4052 22.6624V24.8392C33.2157 24.8171 33.023 24.8057 32.8278 24.8057C30.0725 24.8057 27.8389 27.0672 27.8389 29.8569C27.8389 30.8163 28.1031 31.7133 28.5619 32.4773C28.1037 32.8132 27.6873 33.2041 27.3222 33.6404C26.9515 32.3003 26.2252 31.1107 25.2527 30.1826C25.9471 29.1909 26.3552 27.9792 26.3552 26.671C26.3552 24.6521 25.3832 22.863 23.8871 21.7575C23.8812 18.8232 22.5277 16.2092 20.4199 14.5162C20.4709 14.4506 20.5207 14.3841 20.5695 14.3167C20.8657 14.1792 21.1706 14.0573 21.483 13.9523C22.4029 14.3824 23.4274 14.6224 24.5073 14.6224ZM35.4417 22.6624V25.5537C36.8667 26.443 37.8166 28.0376 37.8166 29.8569C37.8166 30.8915 37.5093 31.8534 36.9822 32.6543C38.6041 33.9501 39.6451 35.9581 39.6451 38.2123V42.3933H37.6636V38.2123C37.6636 36.509 36.8341 35.002 35.5617 34.0827C34.7765 34.6045 33.8372 34.908 32.8278 34.908C31.744 34.908 30.741 34.5582 29.9229 33.9639C28.554 34.8687 27.6492 36.4335 27.6492 38.2123V42.3933H25.6164V35.6825C25.6164 34.0717 24.9387 32.6211 23.8562 31.6072C22.87 32.3264 21.6595 32.75 20.3512 32.75C18.9379 32.75 17.6387 32.2556 16.613 31.4283C15.4144 32.4465 14.6524 33.9744 14.6524 35.6825V42.3933H12.6709V40.0908C12.4233 38.6761 11.6187 37.4562 10.4948 36.6718C9.65988 37.3439 8.60293 37.7455 7.45334 37.7455C6.34185 37.7455 5.31695 37.3701 4.49557 36.7377C3.18475 37.6956 2.3316 39.2558 2.3316 41.0176V42.3933H0.570312V41.0176C0.570312 38.7341 1.64131 36.7039 3.30246 35.4138C2.83341 34.6538 2.56233 33.7556 2.56233 32.7933C2.56233 30.7259 3.81352 28.9545 5.59103 28.2128V21.7767C5.59103 18.8346 6.9458 16.2129 9.05815 14.5162C8.09345 13.2733 7.51809 11.7059 7.51809 10.0025C7.51809 5.96459 10.751 2.69125 14.739 2.69125C16.0219 2.69125 17.2265 3.02994 18.2706 3.62382C19.5236 1.45603 21.8475 0 24.5073 0C28.4953 0 31.7282 3.27335 31.7282 7.31122C31.7282 9.42702 30.8406 11.3329 29.4218 12.6679L29.4221 12.6677C32.9971 14.5341 35.4417 18.3092 35.4417 22.6624ZM12.3444 32.7933C12.3444 30.1173 10.2481 27.9371 7.62752 27.8442V21.7767C7.62752 19.386 8.77819 17.2675 10.5493 15.9579C11.7308 16.8115 13.177 17.3137 14.739 17.3137C16.3011 17.3137 17.7473 16.8115 18.9288 15.9579C20.4456 17.0795 21.5074 18.7944 21.781 20.7654C21.3228 20.6521 20.8439 20.592 20.3512 20.592C17.0353 20.592 14.3473 23.3137 14.3473 26.671C14.3473 27.873 14.6918 28.9935 15.2864 29.9368C13.6856 31.3228 12.6709 33.3827 12.6709 35.6825V36.2381C12.3642 35.9008 12.0254 35.5938 11.6595 35.3221C12.0945 34.5819 12.3444 33.7172 12.3444 32.7933ZM24.5073 1.94693C22.475 1.94693 20.714 3.12319 19.8523 4.83999C21.1548 6.16248 21.96 7.98726 21.96 10.0025C21.96 10.5951 21.8904 11.1712 21.7589 11.723C22.5571 12.2246 23.4988 12.5143 24.5073 12.5143C27.3893 12.5143 29.7257 10.1487 29.7257 7.23062C29.7257 4.31252 27.3893 1.94693 24.5073 1.94693ZM19.9575 10.0025C19.9575 12.9206 17.6211 15.2862 14.739 15.2862C11.857 15.2862 9.5206 12.9206 9.5206 10.0025C9.5206 7.08437 11.857 4.71879 14.739 4.71879C17.6211 4.71879 19.9575 7.08437 19.9575 10.0025ZM20.3512 30.8088C22.6083 30.8088 24.438 28.9563 24.438 26.671C24.438 24.3858 22.6083 22.5332 20.3512 22.5332C18.0942 22.5332 16.2645 24.3858 16.2645 26.671C16.2645 28.9563 18.0942 30.8088 20.3512 30.8088ZM36.0404 29.8569C36.0404 31.6534 34.602 33.1097 32.8277 33.1097C31.0535 33.1097 29.6151 31.6534 29.6151 29.8569C29.6151 28.0604 31.0535 26.6041 32.8277 26.6041C34.602 26.6041 36.0404 28.0604 36.0404 29.8569ZM10.4256 32.7933C10.4256 34.4554 9.09489 35.8027 7.45334 35.8027C5.81179 35.8027 4.48106 34.4554 4.48106 32.7933C4.48106 31.1312 5.81179 29.7839 7.45334 29.7839C9.09489 29.7839 10.4256 31.1312 10.4256 32.7933Z" fill="#0080FF"/>
<path d="M4.5686 47.3458C5.74722 47.3458 6.73912 47.7475 7.54431 48.5509C8.34951 49.3544 8.7521 50.341 8.7521 51.5107C8.7521 52.6804 8.34951 53.667 7.54431 54.4704C6.73912 55.2739 5.74722 55.6756 4.5686 55.6756H2.41558V59.7519H0V47.3458H4.5686ZM4.5686 53.3893C5.08206 53.3893 5.50799 53.2121 5.84641 52.8576C6.18482 52.4914 6.35403 52.0424 6.35403 51.5107C6.35403 50.9672 6.18482 50.5182 5.84641 50.1637C5.50799 49.8093 5.08206 49.632 4.5686 49.632H2.41558V53.3893H4.5686Z" fill="#0080FF"/>
<path d="M17.554 47.3458V49.6852H13.0029V59.7519H10.5873V47.3458H17.554Z" fill="#0080FF"/>
<path d="M24.2168 60C22.373 60 20.8502 59.3797 19.6482 58.1391C18.4462 56.8985 17.8453 55.3684 17.8453 53.5488C17.8453 51.7175 18.4462 50.1874 19.6482 48.9586C20.8502 47.718 22.373 47.0977 24.2168 47.0977C25.3254 47.0977 26.3465 47.3635 27.28 47.8952C28.2253 48.4151 28.9604 49.124 29.4856 50.022L27.4026 51.2448C27.0992 50.6895 26.6674 50.2583 26.1073 49.9511C25.5471 49.632 24.917 49.4725 24.2168 49.4725C23.0265 49.4725 22.0638 49.8506 21.3286 50.6068C20.6051 51.363 20.2433 52.3437 20.2433 53.5488C20.2433 54.7422 20.6051 55.717 21.3286 56.4731C22.0638 57.2293 23.0265 57.6074 24.2168 57.6074C24.917 57.6074 25.5471 57.4538 26.1073 57.1466C26.6791 56.8276 27.1108 56.3963 27.4026 55.8528L29.4856 57.0757C28.9604 57.9737 28.2311 58.6885 27.2975 59.2202C26.364 59.7401 25.3371 60 24.2168 60Z" fill="#0080FF"/>
<path d="M37.801 47.3458H40.2166L36.5407 56.3314C35.5605 58.7417 33.9501 59.8819 31.7096 59.7519V57.4656C32.363 57.5247 32.8882 57.4361 33.2849 57.1998C33.6934 56.9517 34.0318 56.5558 34.3002 56.0123L30.2917 47.3458H32.7073L35.3854 53.3362L37.801 47.3458Z" fill="#0080FF"/>
<rect x="65" y="4.50001" width="89" height="20" rx="4" fill="#0080FF"/>
<path d="M81.988 13.102H80.182L79.524 15.846H81.4V16.602H79.342L78.642 19.5H77.83L78.544 16.602H75.898L75.198 19.5H74.386L75.1 16.602H73.518V15.846H75.282L75.94 13.102H74.12V12.388H76.122L76.808 9.56001H77.62L76.92 12.388H79.566L80.252 9.56001H81.064L80.364 12.388H81.988V13.102ZM78.726 15.846L79.384 13.102H76.738L76.08 15.846H78.726ZM92.5676 19.5V11.408L88.9696 17.694H88.3536L84.7416 11.408V19.5H83.7616V9.56001H84.7696L88.6476 16.364L92.5536 9.56001H93.5476V19.5H92.5676ZM98.8416 19.64C98.3189 19.64 97.8336 19.542 97.3856 19.346C96.9469 19.1407 96.5643 18.8653 96.2376 18.52C95.9203 18.1653 95.6729 17.764 95.4956 17.316C95.3183 16.8587 95.2296 16.378 95.2296 15.874C95.2296 15.3513 95.3183 14.866 95.4956 14.418C95.6729 13.9607 95.9249 13.5593 96.2516 13.214C96.5783 12.8593 96.9609 12.584 97.3996 12.388C97.8476 12.1827 98.3329 12.08 98.8556 12.08C99.3783 12.08 99.8589 12.1827 100.298 12.388C100.736 12.584 101.119 12.8593 101.446 13.214C101.772 13.5593 102.024 13.9607 102.202 14.418C102.379 14.866 102.468 15.3513 102.468 15.874C102.468 16.378 102.379 16.8587 102.202 17.316C102.024 17.764 101.772 18.1653 101.446 18.52C101.128 18.8653 100.746 19.1407 100.298 19.346C99.8589 19.542 99.3736 19.64 98.8416 19.64ZM96.1956 15.888C96.1956 16.4293 96.3123 16.924 96.5456 17.372C96.7883 17.8107 97.1103 18.1607 97.5116 18.422C97.9129 18.674 98.3563 18.8 98.8416 18.8C99.3269 18.8 99.7703 18.6693 100.172 18.408C100.573 18.1467 100.895 17.792 101.138 17.344C101.38 16.8867 101.502 16.392 101.502 15.86C101.502 15.3187 101.38 14.824 101.138 14.376C100.895 13.928 100.573 13.5733 100.172 13.312C99.7703 13.0507 99.3269 12.92 98.8416 12.92C98.3563 12.92 97.9129 13.0553 97.5116 13.326C97.1196 13.5967 96.8023 13.956 96.5596 14.404C96.3169 14.8427 96.1956 15.3373 96.1956 15.888ZM104.046 19.5V12.22H104.998V18.212L109.436 12.206H110.29V19.5H109.338V13.606L104.97 19.5H104.046ZM107.182 11.282C106.547 11.282 106.057 11.1327 105.712 10.834C105.366 10.5353 105.194 10.1573 105.194 9.70001H105.894C105.894 9.98001 105.996 10.2133 106.202 10.4C106.416 10.5867 106.743 10.68 107.182 10.68C107.611 10.68 107.924 10.5913 108.12 10.414C108.325 10.2367 108.442 9.99867 108.47 9.70001H109.156C109.156 10.1573 108.983 10.5353 108.638 10.834C108.292 11.1327 107.807 11.282 107.182 11.282ZM112.568 19.5V9.56001H116.684C117.114 9.56001 117.506 9.64867 117.86 9.82601C118.224 10.0033 118.537 10.246 118.798 10.554C119.06 10.8527 119.265 11.1887 119.414 11.562C119.564 11.926 119.638 12.2993 119.638 12.682C119.638 13.2233 119.517 13.7367 119.274 14.222C119.041 14.698 118.71 15.0853 118.28 15.384C117.851 15.6827 117.347 15.832 116.768 15.832H113.548V19.5H112.568ZM113.548 14.964H116.726C117.118 14.964 117.459 14.8567 117.748 14.642C118.038 14.4273 118.262 14.1473 118.42 13.802C118.579 13.4567 118.658 13.0833 118.658 12.682C118.658 12.2713 118.565 11.8933 118.378 11.548C118.192 11.2027 117.944 10.932 117.636 10.736C117.338 10.5307 117.006 10.428 116.642 10.428H113.548V14.964ZM121.277 19.5V9.56001H126.919V10.428H122.257V19.5H121.277ZM127.838 14.46C127.838 13.8533 127.941 13.2607 128.146 12.682C128.361 12.094 128.669 11.562 129.07 11.086C129.471 10.6007 129.966 10.218 130.554 9.93801C131.142 9.64867 131.809 9.50401 132.556 9.50401C133.443 9.50401 134.199 9.70934 134.824 10.12C135.459 10.5213 135.925 11.0393 136.224 11.674L135.454 12.15C135.239 11.7113 134.969 11.366 134.642 11.114C134.315 10.8527 133.965 10.666 133.592 10.554C133.228 10.442 132.864 10.386 132.5 10.386C131.903 10.386 131.375 10.5073 130.918 10.75C130.461 10.9833 130.073 11.3007 129.756 11.702C129.448 12.094 129.215 12.5373 129.056 13.032C128.897 13.5173 128.818 14.012 128.818 14.516C128.818 15.0667 128.911 15.594 129.098 16.098C129.285 16.602 129.546 17.05 129.882 17.442C130.218 17.8247 130.61 18.1327 131.058 18.366C131.515 18.59 132.01 18.702 132.542 18.702C132.915 18.702 133.298 18.6367 133.69 18.506C134.082 18.3753 134.446 18.1747 134.782 17.904C135.127 17.6333 135.403 17.2833 135.608 16.854L136.42 17.274C136.215 17.7687 135.897 18.1887 135.468 18.534C135.039 18.8793 134.558 19.1407 134.026 19.318C133.503 19.4953 132.99 19.584 132.486 19.584C131.805 19.584 131.179 19.4393 130.61 19.15C130.041 18.8513 129.546 18.4593 129.126 17.974C128.715 17.4793 128.398 16.9287 128.174 16.322C127.95 15.706 127.838 15.0853 127.838 14.46ZM139.186 19.528V18.702H139.816C140.03 18.702 140.189 18.6413 140.292 18.52C140.404 18.3987 140.525 18.2167 140.656 17.974L141.09 17.064L136.848 9.56001H137.926L141.538 16.07L144.548 9.56001H145.57L141.412 18.45C141.225 18.8327 141.034 19.108 140.838 19.276C140.642 19.444 140.366 19.528 140.012 19.528H139.186Z" fill="white"/>
<path d="M66.458 50.5V37.72H76.556V50.5H74.522V39.502H68.474V50.5H66.458ZM83.4258 50.68C82.6818 50.68 82.0158 50.554 81.4278 50.302C80.8398 50.038 80.3298 49.678 79.8978 49.222C79.4778 48.766 79.1538 48.25 78.9258 47.674C78.6978 47.086 78.5838 46.462 78.5838 45.802C78.5838 45.142 78.6978 44.518 78.9258 43.93C79.1538 43.342 79.4778 42.826 79.8978 42.382C80.3298 41.926 80.8398 41.572 81.4278 41.32C82.0278 41.056 82.6938 40.924 83.4258 40.924C84.1578 40.924 84.8178 41.056 85.4058 41.32C86.0058 41.572 86.5158 41.926 86.9358 42.382C87.3678 42.826 87.6978 43.342 87.9258 43.93C88.1538 44.518 88.2678 45.142 88.2678 45.802C88.2678 46.462 88.1538 47.086 87.9258 47.674C87.6978 48.25 87.3678 48.766 86.9358 49.222C86.5158 49.678 86.0058 50.038 85.4058 50.302C84.8178 50.554 84.1578 50.68 83.4258 50.68ZM80.6178 45.82C80.6178 46.42 80.7438 46.96 80.9958 47.44C81.2478 47.92 81.5838 48.298 82.0038 48.574C82.4238 48.85 82.8978 48.988 83.4258 48.988C83.9418 48.988 84.4098 48.85 84.8298 48.574C85.2618 48.286 85.6038 47.902 85.8558 47.422C86.1078 46.93 86.2338 46.39 86.2338 45.802C86.2338 45.202 86.1078 44.662 85.8558 44.182C85.6038 43.702 85.2618 43.324 84.8298 43.048C84.4098 42.76 83.9418 42.616 83.4258 42.616C82.8978 42.616 82.4238 42.76 82.0038 43.048C81.5838 43.336 81.2478 43.72 80.9958 44.2C80.7438 44.668 80.6178 45.208 80.6178 45.82ZM95.3699 50.68C94.6139 50.68 93.9479 50.5 93.3719 50.14C92.7959 49.78 92.3399 49.312 92.0039 48.736V54.334H90.0239V41.086H91.7699V42.778C92.1299 42.214 92.5979 41.764 93.1739 41.428C93.7499 41.092 94.3919 40.924 95.0999 40.924C95.7479 40.924 96.3419 41.056 96.8819 41.32C97.4219 41.572 97.8899 41.926 98.2859 42.382C98.6819 42.838 98.9879 43.36 99.2039 43.948C99.4319 44.524 99.5459 45.136 99.5459 45.784C99.5459 46.684 99.3659 47.506 99.0059 48.25C98.6579 48.994 98.1659 49.588 97.5299 50.032C96.9059 50.464 96.1859 50.68 95.3699 50.68ZM94.7219 48.988C95.1419 48.988 95.5199 48.898 95.8559 48.718C96.2039 48.538 96.4979 48.298 96.7379 47.998C96.9899 47.698 97.1819 47.356 97.3139 46.972C97.4459 46.588 97.5119 46.192 97.5119 45.784C97.5119 45.352 97.4399 44.944 97.2959 44.56C97.1519 44.176 96.9419 43.84 96.6659 43.552C96.4019 43.264 96.0899 43.036 95.7299 42.868C95.3819 42.7 94.9979 42.616 94.5779 42.616C94.3259 42.616 94.0619 42.664 93.7859 42.76C93.5099 42.856 93.2519 42.988 93.0119 43.156C92.7719 43.324 92.5619 43.522 92.3819 43.75C92.2019 43.978 92.0759 44.218 92.0039 44.47V46.936C92.1719 47.32 92.3939 47.668 92.6699 47.98C92.9459 48.28 93.2639 48.526 93.6239 48.718C93.9839 48.898 94.3499 48.988 94.7219 48.988ZM103.559 50.5V42.832H100.445V41.086H108.671V42.832H105.539V50.5H103.559ZM109.449 47.746C109.449 47.146 109.617 46.624 109.953 46.18C110.301 45.724 110.775 45.376 111.375 45.136C111.975 44.884 112.671 44.758 113.463 44.758C113.883 44.758 114.309 44.788 114.741 44.848C115.185 44.908 115.575 45.004 115.911 45.136V44.542C115.911 43.882 115.713 43.366 115.317 42.994C114.921 42.622 114.351 42.436 113.607 42.436C113.079 42.436 112.581 42.532 112.113 42.724C111.645 42.904 111.147 43.162 110.619 43.498L109.953 42.166C110.577 41.746 111.201 41.434 111.825 41.23C112.461 41.026 113.127 40.924 113.823 40.924C115.083 40.924 116.073 41.26 116.793 41.932C117.525 42.592 117.891 43.534 117.891 44.758V48.268C117.891 48.496 117.927 48.658 117.999 48.754C118.083 48.85 118.221 48.904 118.413 48.916V50.5C118.233 50.536 118.071 50.56 117.927 50.572C117.783 50.584 117.663 50.59 117.567 50.59C117.147 50.59 116.829 50.488 116.613 50.284C116.397 50.08 116.271 49.84 116.235 49.564L116.181 49.024C115.773 49.552 115.251 49.96 114.615 50.248C113.979 50.536 113.337 50.68 112.689 50.68C112.065 50.68 111.507 50.554 111.015 50.302C110.523 50.038 110.139 49.684 109.863 49.24C109.587 48.796 109.449 48.298 109.449 47.746ZM115.443 48.322C115.587 48.166 115.701 48.01 115.785 47.854C115.869 47.698 115.911 47.56 115.911 47.44V46.36C115.575 46.228 115.221 46.132 114.849 46.072C114.477 46 114.111 45.964 113.751 45.964C113.031 45.964 112.443 46.108 111.987 46.396C111.543 46.684 111.321 47.08 111.321 47.584C111.321 47.86 111.393 48.124 111.537 48.376C111.693 48.628 111.909 48.832 112.185 48.988C112.473 49.144 112.827 49.222 113.247 49.222C113.679 49.222 114.093 49.138 114.489 48.97C114.885 48.802 115.203 48.586 115.443 48.322ZM119.537 50.59V48.826C119.837 48.826 120.107 48.754 120.347 48.61C120.587 48.454 120.797 48.202 120.977 47.854C121.157 47.494 121.301 46.996 121.409 46.36C121.517 45.724 121.589 44.914 121.625 43.93L121.751 41.086H128.465V50.5H126.485V42.832H123.497L123.461 44.11C123.413 45.37 123.299 46.42 123.119 47.26C122.939 48.088 122.687 48.748 122.363 49.24C122.051 49.72 121.655 50.068 121.175 50.284C120.707 50.488 120.161 50.59 119.537 50.59ZM134.694 52.948V48.718H135.306C135.642 48.718 135.93 48.586 136.17 48.322C136.422 48.058 136.632 47.638 136.8 47.062C136.98 46.486 137.118 45.73 137.214 44.794C137.322 43.846 137.4 42.688 137.448 41.32L137.538 37.72H145.764V48.718H147.384V52.948H145.602V50.5H136.476V52.948H134.694ZM137.862 48.718H143.73V39.502H139.41L139.356 41.59C139.32 42.97 139.248 44.14 139.14 45.1C139.032 46.048 138.876 46.816 138.672 47.404C138.468 47.992 138.198 48.43 137.862 48.718ZM149.462 50.5V37.72H159.56V50.5H157.526V39.502H151.478V50.5H149.462ZM167.762 50.59C166.838 50.59 166.004 50.41 165.26 50.05C164.516 49.69 163.874 49.204 163.334 48.592C162.794 47.968 162.374 47.272 162.074 46.504C161.786 45.724 161.642 44.926 161.642 44.11C161.642 43.258 161.798 42.448 162.11 41.68C162.422 40.9 162.854 40.21 163.406 39.61C163.958 38.998 164.606 38.518 165.35 38.17C166.106 37.81 166.922 37.63 167.798 37.63C168.71 37.63 169.538 37.816 170.282 38.188C171.038 38.56 171.68 39.058 172.208 39.682C172.748 40.306 173.162 41.002 173.45 41.77C173.75 42.538 173.9 43.324 173.9 44.128C173.9 44.98 173.744 45.796 173.432 46.576C173.132 47.344 172.706 48.034 172.154 48.646C171.602 49.246 170.948 49.72 170.192 50.068C169.448 50.416 168.638 50.59 167.762 50.59ZM163.694 44.11C163.694 44.71 163.79 45.292 163.982 45.856C164.174 46.42 164.444 46.924 164.792 47.368C165.152 47.8 165.584 48.142 166.088 48.394C166.592 48.646 167.156 48.772 167.78 48.772C168.428 48.772 169.004 48.64 169.508 48.376C170.012 48.112 170.432 47.758 170.768 47.314C171.116 46.858 171.38 46.354 171.56 45.802C171.74 45.238 171.83 44.674 171.83 44.11C171.83 43.51 171.734 42.934 171.542 42.382C171.362 41.818 171.092 41.32 170.732 40.888C170.372 40.444 169.94 40.096 169.436 39.844C168.944 39.592 168.392 39.466 167.78 39.466C167.132 39.466 166.556 39.598 166.052 39.862C165.548 40.126 165.122 40.48 164.774 40.924C164.426 41.368 164.156 41.866 163.964 42.418C163.784 42.97 163.694 43.534 163.694 44.11Z" fill="#070E18"/>
<g clip-path="url(#clip0_667_1176)">
<path d="M57.7184 45.5925C57.7092 45.8124 57.5529 45.9883 57.5069 46.1994C57.4977 46.2258 57.4609 46.217 57.4425 46.217C56.2928 46.1994 55.18 46.4369 54.0947 46.78C52.8623 47.167 51.7034 47.7036 50.5906 48.3281C49.3122 49.0406 48.1165 49.8675 46.9668 50.7559C46.3046 51.2661 45.6701 51.7939 45.0446 52.3481C45.0998 52.4009 45.155 52.3481 45.201 52.3393C46.1023 52.1985 47.0129 52.0578 47.9234 51.961C49.3673 51.8115 50.8205 51.7147 52.2737 51.7499C53.4049 51.7763 54.5362 51.8555 55.6583 52.0314C57.231 52.2865 58.7485 52.7175 60.1557 53.4476C60.3028 53.5268 60.45 53.606 60.5972 53.6939C60.6156 53.7027 60.6248 53.7203 60.6615 53.7467C60.4132 53.817 60.1741 53.8786 59.9349 53.9402C59.889 53.9402 59.843 53.9402 59.797 53.949C59.797 53.8874 59.7326 53.8786 59.6958 53.861C59.5487 53.7907 59.4015 53.7291 59.2452 53.6675C58.2151 53.2365 57.1298 52.9374 56.0262 52.7351C55.1616 52.5768 54.2879 52.48 53.4049 52.4272C52.2921 52.3657 51.1792 52.3657 50.0663 52.4272C49.8548 52.436 49.6341 52.436 49.4225 52.4624C48.9719 52.5064 48.512 52.5328 48.0613 52.5944C47.6383 52.6471 47.2152 52.6823 46.7921 52.7351C46.2035 52.8143 45.6149 52.9286 45.0263 53.0078C44.7319 53.043 44.4928 53.1309 44.3733 53.4212C44.3456 53.4828 44.2997 53.5268 44.2629 53.5796C44.2261 53.6499 44.1157 53.7115 44.1617 53.7819C44.2169 53.8698 44.3089 53.7643 44.3825 53.7555C44.4008 53.7555 44.41 53.7555 44.4284 53.7467C44.8055 53.6851 45.1734 53.6235 45.5505 53.562C46.3507 53.4388 47.1508 53.3245 47.9602 53.2453C48.8063 53.1573 49.6433 53.0782 50.4894 53.0518C51.731 53.0166 52.9727 53.0166 54.2143 53.1309C55.5019 53.2541 56.7619 53.4652 57.9944 53.8435C58.3162 53.9402 58.6474 54.0194 58.9417 54.1865C58.8221 54.2217 58.6933 54.2569 58.5738 54.2833C58.491 54.3008 58.491 54.336 58.5186 54.3976C58.5738 54.4944 58.6197 54.5911 58.6749 54.6791C58.6197 54.6967 58.5646 54.6703 58.5094 54.6527C58.1139 54.512 57.7092 54.3888 57.3045 54.2921C56.4216 54.0634 55.5203 53.8962 54.6097 53.8082C54.0211 53.7467 53.4417 53.6939 52.8531 53.6675C52.1449 53.6411 51.4367 53.6411 50.7285 53.6675C50.0387 53.6939 49.3489 53.7467 48.6592 53.8082C48.1717 53.8522 47.6842 53.8962 47.1968 53.9578C46.645 54.0282 46.0931 54.1074 45.5413 54.1953C44.9251 54.2921 44.3089 54.3976 43.7018 54.5384C43.6651 54.5472 43.6191 54.5384 43.5915 54.5735C43.4443 54.7934 43.2696 55.0046 43.1408 55.2333C43.1868 55.2597 43.2144 55.2509 43.242 55.2421C44.1157 55.0749 44.9894 54.9078 45.8724 54.7759C46.8565 54.6263 47.8406 54.5032 48.8339 54.424C49.6065 54.3624 50.379 54.3096 51.1516 54.2921C52.6692 54.2657 54.1775 54.3448 55.6766 54.5823C56.5044 54.7143 57.3229 54.899 58.1231 55.1541C58.4082 55.242 58.6749 55.3828 58.9784 55.4268C59.0428 55.4708 59.0796 55.5236 59.1164 55.5939C59.236 55.8402 59.3555 56.0865 59.5027 56.368C59.3279 56.2888 59.19 56.2272 59.0428 56.1657C58.1139 55.7698 57.139 55.4884 56.1457 55.3036C54.389 54.9606 52.6048 54.8814 50.8113 54.9342C49.8732 54.9606 48.9351 55.0221 47.9969 55.1277C47.3347 55.1981 46.6725 55.286 46.0195 55.3916C45.2102 55.5147 44.4008 55.6555 43.6007 55.8226C42.7269 55.9985 41.8532 56.2097 40.9887 56.4296C40.8967 56.456 40.8415 56.4736 40.7863 56.3592C40.7311 56.2537 40.6116 56.1745 40.5104 56.0953C40.4736 56.0601 40.446 56.0337 40.446 55.9898C40.7035 55.7698 40.9059 55.5059 41.1358 55.2597C41.7612 54.5735 42.4142 53.9226 43.0764 53.2717C43.7386 52.6208 44.4376 52.005 45.1458 51.4069C45.8172 50.8351 46.5162 50.2809 47.2336 49.7531C48.1349 49.0934 49.0638 48.4777 50.0387 47.9147C50.8297 47.4573 51.6483 47.0439 52.4944 46.7008C53.1474 46.4369 53.8096 46.1994 54.4902 46.0235C54.573 46.0059 54.6558 45.9707 54.7569 45.9355C54.6006 45.8036 54.4258 45.7244 54.2787 45.6277C54.1407 45.5397 54.0119 45.5309 53.8556 45.5749C53.0186 45.8212 52.2001 46.1202 51.4091 46.4897C50.5722 46.8767 49.772 47.3078 48.9902 47.7916C48.1257 48.3193 47.298 48.8911 46.4886 49.4981C45.8908 49.9555 45.3114 50.4217 44.7412 50.9143C44.1065 51.4508 43.4903 52.005 42.9017 52.5768C42.1843 53.2717 41.4761 53.9754 40.8047 54.7055C40.538 54.9958 40.2713 55.3036 40.0138 55.6027C39.8206 55.4796 39.6551 55.3388 39.5355 55.1541C39.5999 55.1277 39.6367 55.0661 39.6735 55.0221C40.3357 54.2833 41.0071 53.562 41.7152 52.8583C42.451 52.1282 43.2052 51.4157 43.9869 50.7295C44.6492 50.149 45.339 49.586 46.0472 49.0495C47.1324 48.2314 48.2545 47.4661 49.4501 46.7976C50.5262 46.1906 51.6391 45.6629 52.8255 45.267C52.991 45.2142 53.1566 45.1527 53.3314 45.0911C53.2945 45.0559 53.2762 45.0383 53.2486 45.0207C53.1014 44.9328 52.9451 44.8536 52.8071 44.7568C52.7059 44.6865 52.6048 44.6953 52.4944 44.7304C51.2988 45.1351 50.1675 45.6541 49.073 46.261C48.0154 46.8504 47.022 47.5189 46.0563 48.2314C45.2654 48.8119 44.5112 49.4277 43.7754 50.0698C43.0212 50.7295 42.2763 51.4157 41.5681 52.1194C40.7771 52.911 40.0138 53.7027 39.278 54.5472C39.2044 54.6263 39.1584 54.7319 39.0389 54.7671C38.9101 54.6527 38.7905 54.5295 38.6618 54.424C38.6066 54.3712 38.6066 54.3536 38.6526 54.2921C39.5539 53.2629 40.492 52.2689 41.4761 51.3101C42.359 50.4568 43.2696 49.63 44.2261 48.8471C44.7043 48.4513 45.201 48.0818 45.6885 47.7036C46.5622 47.0351 47.4819 46.4457 48.4384 45.8916C49.3857 45.3374 50.3698 44.8448 51.4091 44.4578C51.4643 44.4402 51.5195 44.4314 51.5655 44.3698C51.4091 44.317 51.2528 44.3258 51.0964 44.317C49.9284 44.2203 48.7603 44.1851 47.5923 44.229C46.9668 44.2554 46.3415 44.2818 45.716 44.3434C45.1274 44.3962 44.548 44.4665 43.9594 44.5369C43.1684 44.6249 42.3866 44.7656 41.6049 44.9064C41.0071 45.0119 40.4092 45.1439 39.8206 45.267C39.1216 45.4077 38.441 45.5925 37.7512 45.7596C37.7053 45.5573 37.6593 45.3638 37.6133 45.1703C37.6409 45.1351 37.6777 45.1175 37.7328 45.1087C37.9168 45.0647 38.1007 45.0119 38.2847 44.9679C39.324 44.7216 40.3633 44.4929 41.4209 44.2994C42.4051 44.1235 43.3891 43.9652 44.3825 43.8508C45.247 43.7452 46.1207 43.6749 46.9853 43.6309C48.42 43.5517 49.8548 43.5693 51.2896 43.7101C52.0897 43.7892 52.8807 43.9036 53.6532 44.0707C54.9776 44.361 56.2469 44.8096 57.4241 45.4781C57.5069 45.4869 57.5988 45.5749 57.7184 45.5925Z" fill="#070E18"/>
<path d="M58.3468 44.1319C58.2916 44.2903 58.2364 44.4574 58.1261 44.5982C58.0893 44.5806 58.0525 44.563 58.0157 44.5454C57.3167 44.0792 56.5717 43.7009 55.7808 43.4019C54.6587 42.9708 53.4999 42.6981 52.3042 42.5222C51.3753 42.3903 50.4464 42.3111 49.5175 42.2935C47.862 42.2583 46.2157 42.3287 44.5693 42.5222C43.6404 42.6278 42.7115 42.7597 41.7918 42.9269C41.148 43.0412 40.5134 43.1644 39.8788 43.2963C39.0234 43.4722 38.1773 43.6745 37.3495 43.912C37.2943 43.7185 37.23 43.5162 37.2392 43.3139C37.4047 43.2699 37.5703 43.2083 37.7358 43.1732C38.49 42.9884 39.2534 42.7949 40.0167 42.6366C40.9089 42.4518 41.801 42.2759 42.7023 42.144C43.2358 42.0648 43.76 41.9768 44.2934 41.9153C44.9557 41.8361 45.6271 41.7657 46.2984 41.7305C47.0342 41.6866 47.7608 41.6338 48.4966 41.6338C49.7198 41.6338 50.9431 41.6954 52.1571 41.8713C52.8377 41.968 53.5183 42.1 54.1897 42.2671C55.3025 42.5574 56.3786 42.9532 57.3719 43.5162C57.6938 43.7009 58.0157 43.9296 58.3468 44.1319Z" fill="#E59838"/>
<path d="M58.3459 44.1314C58.0148 43.9202 57.6929 43.7003 57.3618 43.5068C56.3685 42.9438 55.3016 42.548 54.1796 42.2577C53.5082 42.0818 52.8368 41.9587 52.147 41.8619C50.933 41.686 49.7097 41.6244 48.4865 41.6244C47.7507 41.6244 47.0241 41.6772 46.2884 41.7212C45.617 41.7651 44.9548 41.8267 44.2833 41.9059C43.7499 41.9674 43.2257 42.0554 42.6922 42.1346C41.7909 42.2665 40.8988 42.4425 40.0066 42.6272C39.2433 42.7855 38.4799 42.9702 37.7257 43.1638C37.5602 43.2077 37.3946 43.2605 37.2291 43.3045C37.1187 43.1286 37.1279 42.9263 37.0727 42.7327C37.0543 42.6712 37.1463 42.6888 37.1739 42.68C37.6889 42.548 38.1948 42.4073 38.7098 42.2841C39.6296 42.0554 40.5493 41.8707 41.4782 41.7036C42.26 41.5628 43.0509 41.4397 43.8419 41.3341C45.4422 41.1318 47.0333 41.0086 48.6245 40.9999C49.6178 40.9911 50.611 41.0526 51.6044 41.167C52.6804 41.2901 53.7381 41.4837 54.7774 41.7915C56.0926 42.1874 57.3066 42.7415 58.4011 43.5508C58.4931 43.6212 58.5482 43.6739 58.4839 43.7971C58.4195 43.9026 58.3919 44.017 58.3459 44.1314Z" fill="#070E18"/>
<path d="M57.721 45.5916C57.6015 45.5741 57.5095 45.4861 57.4175 45.4333C56.2403 44.7648 54.9803 44.3162 53.6467 44.0259C52.8649 43.85 52.074 43.7444 51.283 43.6652C49.8482 43.5157 48.4134 43.5069 46.9787 43.5861C46.105 43.6389 45.2404 43.7004 44.3759 43.806C43.3734 43.9291 42.3893 44.0787 41.4052 44.2546C40.3567 44.4393 39.3082 44.6768 38.2689 44.9231C38.085 44.9671 37.901 45.0199 37.7171 45.0639C37.6711 45.0727 37.6343 45.099 37.5975 45.1254C37.5331 44.9143 37.5055 44.7032 37.4688 44.4833C37.8182 44.4305 38.1493 44.3162 38.4988 44.237C39.3818 44.0259 40.2647 43.8236 41.166 43.6652C41.4695 43.6125 41.773 43.5421 42.0858 43.5157C42.3801 43.4893 42.6744 43.4102 42.9687 43.3574C43.2078 43.3222 43.4469 43.3046 43.6861 43.2606C43.962 43.2166 44.2287 43.1727 44.5047 43.1463C44.7346 43.1287 44.9645 43.1111 45.1944 43.1023C45.3968 43.0935 45.5899 43.0231 45.783 43.0143C46.3165 42.9703 46.8591 42.9264 47.4018 42.9176C48.5698 42.8912 49.7471 42.8824 50.9151 42.9879C51.7337 43.0583 52.5522 43.1639 53.3524 43.3398C54.7044 43.6301 56.0012 44.0435 57.206 44.7032C57.4451 44.8352 57.7027 44.9583 57.905 45.143C57.8958 45.3102 57.8222 45.4509 57.721 45.5916Z" fill="#E59838"/>
<path d="M57.9141 45.1429C57.7117 44.9582 57.4542 44.835 57.2151 44.7031C56.0102 44.0434 54.7134 43.6299 53.3614 43.3397C52.5613 43.1725 51.7427 43.0582 50.9242 42.9878C49.7561 42.8911 48.5788 42.8998 47.4108 42.9174C46.8682 42.9262 46.3347 42.979 45.7921 43.0142C45.5897 43.0318 45.3966 43.0934 45.2035 43.1022C44.9736 43.111 44.7436 43.1286 44.5137 43.1461C44.2378 43.1637 43.9619 43.2077 43.6951 43.2605C43.456 43.3045 43.2169 43.3133 42.9777 43.3573C42.6834 43.4012 42.3891 43.4892 42.0948 43.5156C41.7821 43.542 41.4786 43.6124 41.1751 43.6651C40.283 43.8235 39.3908 44.0258 38.5079 44.2369C38.1676 44.3161 37.8365 44.4304 37.4778 44.4832C37.4134 44.2897 37.3766 44.0962 37.3398 43.9026C38.1768 43.6651 39.0229 43.4628 39.8691 43.2869C40.5037 43.1549 41.1383 43.023 41.7821 42.9174C42.7018 42.7591 43.6307 42.6272 44.5597 42.5128C46.206 42.3193 47.8523 42.2489 49.5078 42.2841C50.4459 42.3017 51.3748 42.3809 52.2945 42.5128C53.4902 42.6887 54.649 42.9614 55.7711 43.3924C56.5621 43.6915 57.307 44.0698 58.006 44.536C58.0428 44.5624 58.0796 44.5712 58.1164 44.5887C58.1072 44.7999 58.006 44.967 57.9141 45.1429Z" fill="#070E18"/>
<path d="M40.0078 55.5751C40.2745 55.2761 40.5321 54.977 40.7988 54.6779C41.4702 53.9478 42.1784 53.2353 42.8957 52.5492C43.4936 51.9774 44.1098 51.4233 44.7352 50.8867C45.3054 50.4029 45.8848 49.9279 46.4827 49.4705C47.2828 48.8635 48.1198 48.2918 48.9843 47.764C49.7661 47.289 50.5662 46.8492 51.4032 46.4621C52.1941 46.1015 53.0127 45.7936 53.8496 45.5473C53.9968 45.5033 54.1348 45.5121 54.2727 45.6001C54.4199 45.6969 54.5946 45.776 54.751 45.908C54.6498 45.9432 54.567 45.9695 54.4843 45.9959C53.7944 46.1719 53.1323 46.4093 52.4884 46.6732C51.6423 47.0251 50.8237 47.4385 50.0328 47.8871C49.0579 48.4413 48.129 49.0659 47.2276 49.7256C46.5102 50.2534 45.8205 50.8075 45.1398 51.3793C44.4317 51.9862 43.7327 52.5932 43.0705 53.2441C42.4083 53.8951 41.7553 54.546 41.1299 55.2321C40.9091 55.4784 40.6976 55.7423 40.4401 55.9622C40.2745 55.8654 40.1366 55.7247 40.0078 55.5751Z" fill="#E59838"/>
<path d="M39.0312 54.7312C39.1416 54.6873 39.1968 54.5905 39.2704 54.5113C39.997 53.6757 40.7695 52.8752 41.5605 52.0836C42.2687 51.3711 43.0136 50.6938 43.7678 50.034C44.5036 49.3919 45.2578 48.7761 46.0487 48.1956C47.0144 47.4831 48.0169 46.8145 49.0654 46.2252C50.1599 45.6182 51.2912 45.0905 52.4868 44.6946C52.5972 44.6594 52.6983 44.6507 52.7995 44.721C52.9467 44.8178 53.0938 44.897 53.241 44.9849C53.2686 45.0025 53.287 45.0201 53.3238 45.0553C53.1398 45.1169 52.9834 45.1784 52.8179 45.2312C51.6407 45.6271 50.5278 46.1548 49.4425 46.7618C48.2469 47.4303 47.1248 48.1956 46.0396 49.0136C45.3313 49.5502 44.6508 50.1132 43.9794 50.6938C43.1976 51.3798 42.4434 52.0923 41.7076 52.8225C40.9995 53.5261 40.3281 54.2475 39.6659 54.9864C39.6199 55.0303 39.5923 55.0919 39.5279 55.1183C39.3807 55.0743 39.298 54.9512 39.1784 54.8632C39.1324 54.8192 39.0864 54.7752 39.0312 54.7312Z" fill="#E59838"/>
<path d="M58.9822 55.4077C58.6878 55.355 58.4119 55.223 58.1268 55.1351C57.3267 54.88 56.5081 54.6952 55.6803 54.5633C54.1812 54.3258 52.6729 54.2466 51.1553 54.273C50.3827 54.2906 49.6102 54.3434 48.8376 54.405C47.8443 54.4842 46.8602 54.6073 45.8761 54.7568C44.9932 54.8888 44.1194 55.0647 43.2457 55.223C43.2181 55.2318 43.1905 55.2406 43.1445 55.2142C43.2733 54.9768 43.4388 54.7744 43.5952 54.5545C43.6228 54.5193 43.6687 54.5281 43.7056 54.5193C44.3126 54.3786 44.9288 54.2818 45.545 54.1763C46.0969 54.0883 46.6487 54.0091 47.2005 53.9388C47.688 53.8772 48.1754 53.8244 48.6629 53.7892C49.3526 53.7277 50.0425 53.6749 50.7322 53.6485C51.4404 53.6221 52.1486 53.6309 52.8568 53.6485C53.4454 53.6661 54.0341 53.7277 54.6135 53.7892C55.524 53.8772 56.4253 54.0443 57.3083 54.273C57.7129 54.3786 58.1176 54.5017 58.5131 54.6337C58.5683 54.6513 58.6143 54.6777 58.6786 54.6601C58.7522 54.8448 58.8442 55.0207 58.9362 55.2055C58.9637 55.267 59.0098 55.3286 58.9822 55.4077Z" fill="#E59838"/>
<path d="M58.9355 54.1682C58.6412 54.001 58.3101 53.9219 57.9882 53.8251C56.7558 53.4469 55.4957 53.2358 54.2081 53.1126C52.9665 52.9983 51.7249 52.9983 50.4832 53.0335C49.6371 53.051 48.7909 53.139 47.954 53.227C47.1447 53.3149 46.3445 53.4205 45.5443 53.5436C45.1672 53.6052 44.7993 53.6668 44.4223 53.7284C44.4039 53.7284 44.3947 53.7284 44.3763 53.7372C44.3027 53.7548 44.2107 53.8515 44.1556 53.7636C44.1096 53.702 44.2199 53.6316 44.2567 53.5612C44.2935 53.5085 44.3395 53.4557 44.3671 53.4029C44.4866 53.1126 44.7258 53.0335 45.0201 52.9895C45.6087 52.9103 46.1973 52.796 46.786 52.7168C47.209 52.6552 47.6321 52.6288 48.0552 52.576C48.5058 52.5145 48.9657 52.4881 49.4164 52.4441C49.6279 52.4265 49.8487 52.4265 50.0602 52.4089C51.173 52.3473 52.2859 52.3385 53.3988 52.4089C54.2817 52.4617 55.1555 52.5584 56.02 52.7168C57.1237 52.9191 58.1997 53.2182 59.239 53.6492C59.3862 53.7108 59.5425 53.7811 59.6897 53.8427C59.7357 53.8603 59.7908 53.8691 59.7908 53.9307C59.5149 54.045 59.2206 54.1066 58.9355 54.1682Z" fill="#E59838"/>
</g>
<defs>
<clipPath id="clip0_667_1176">
<rect width="24" height="15.7241" fill="white" transform="translate(37 41)"/>
</clipPath>
</defs>
</svg>
