<svg width="249" height="78" viewBox="0 0 249 78" fill="none" xmlns="http://www.w3.org/2000/svg">
<path fill-rule="evenodd" clip-rule="evenodd" d="M4 39.0001C4 41.6791 4.52766 44.3318 5.55286 46.8068C6.57805 49.2819 8.08071 51.5308 9.97502 53.4251C11.8693 55.3194 14.1182 56.822 16.5933 57.8472C19.0683 58.8724 21.721 59.4001 24.4 59.4001C27.079 59.4001 29.7317 58.8724 32.2067 57.8472C34.6818 56.822 36.9307 55.3194 38.825 53.4251C40.7193 51.5308 42.2219 49.2819 43.2471 46.8068C44.2723 44.3318 44.8 41.6791 44.8 39.0001C44.8 33.5897 42.6507 28.4009 38.825 24.5751C34.9992 20.7494 29.8104 18.6001 24.4 18.6001C18.9896 18.6001 13.8008 20.7494 9.97502 24.5751C6.14928 28.4009 4 33.5897 4 39.0001ZM42.4 39.0001C42.4 43.774 40.5036 48.3524 37.1279 51.728C33.7523 55.1037 29.1739 57.0001 24.4 57.0001C19.6261 57.0001 15.0477 55.1037 11.6721 51.728C8.29642 48.3524 6.4 43.774 6.4 39.0001C6.4 34.2262 8.29642 29.6478 11.6721 26.2722C15.0477 22.8965 19.6261 21.0001 24.4 21.0001C29.1739 21.0001 33.7523 22.8965 37.1279 26.2722C40.5036 29.6478 42.4 34.2262 42.4 39.0001Z" fill="#0080FF"/>
<path fill-rule="evenodd" clip-rule="evenodd" d="M16.0001 39.0002C16.0001 49.5506 19.4609 58.2002 24.4001 58.2002C29.3393 58.2002 32.8001 49.5506 32.8001 39.0002C32.8001 28.4498 29.3393 19.8002 24.4001 19.8002C19.4609 19.8002 16.0001 28.4498 16.0001 39.0002ZM30.4001 39.0002C30.4001 48.3338 27.4121 55.8002 24.4001 55.8002C21.3881 55.8002 18.4001 48.3338 18.4001 39.0002C18.4001 29.6666 21.3881 22.2002 24.4001 22.2002C27.4121 22.2002 30.4001 29.6666 30.4001 39.0002Z" fill="#0080FF"/>
<path d="M9.3641 27.749L10.9721 25.9682C11.2289 26.1986 11.5025 26.4242 11.7953 26.6426C14.9585 29.0138 19.9505 30.4586 25.3913 30.4586C30.0305 30.4586 34.3601 29.4098 37.5233 27.6026C38.2521 27.1902 38.9407 26.7105 39.5801 26.1698L41.1401 27.9938C40.4249 28.6058 39.6137 29.1698 38.7161 29.6834C35.1713 31.7114 30.4313 32.8586 25.3913 32.8586C19.4633 32.8586 13.9625 31.2674 10.3553 28.5626C10.0125 28.3059 9.68179 28.036 9.3641 27.749ZM9.3641 50.2802L10.9721 52.0562C11.2289 51.8258 11.5025 51.6002 11.7953 51.3842C14.9585 49.013 19.9505 47.5682 25.3913 47.5682C30.0305 47.5682 34.3601 48.6146 37.5233 50.4242C38.2937 50.8658 38.9825 51.3458 39.5801 51.8546L41.1401 50.0306C40.3867 49.3929 39.5751 48.8272 38.7161 48.341C35.1713 46.3154 30.4313 45.1682 25.3913 45.1682C19.4633 45.1682 13.9625 46.7594 10.3553 49.4618C10.0049 49.7258 9.6737 49.9994 9.3641 50.2802ZM5.2001 40.2002V37.8002H43.6001V40.2002H5.2001Z" fill="#0080FF"/>
<path d="M87.3 60.3C84.3 60.3 81.58 59.7 79.14 58.5C76.7 57.3 74.6 55.68 72.84 53.64C71.08 51.56 69.72 49.24 68.76 46.68C67.8 44.08 67.32 41.42 67.32 38.7C67.32 35.86 67.82 33.16 68.82 30.6C69.82 28 71.22 25.7 73.02 23.7C74.86 21.66 77 20.06 79.44 18.9C81.88 17.7 84.52 17.1 87.36 17.1C90.36 17.1 93.08 17.72 95.52 18.96C97.96 20.2 100.04 21.86 101.76 23.94C103.52 26.02 104.88 28.34 105.84 30.9C106.8 33.46 107.28 36.08 107.28 38.76C107.28 41.6 106.78 44.32 105.78 46.92C104.78 49.48 103.38 51.78 101.58 53.82C99.78 55.82 97.66 57.4 95.22 58.56C92.78 59.72 90.14 60.3 87.3 60.3ZM71.52 38.7C71.52 41.02 71.9 43.26 72.66 45.42C73.42 47.54 74.5 49.44 75.9 51.12C77.3 52.76 78.96 54.08 80.88 55.08C82.84 56.04 84.98 56.52 87.3 56.52C89.74 56.52 91.92 56.02 93.84 55.02C95.8 53.98 97.46 52.62 98.82 50.94C100.22 49.22 101.28 47.3 102 45.18C102.72 43.06 103.08 40.9 103.08 38.7C103.08 36.38 102.7 34.16 101.94 32.04C101.18 29.92 100.08 28.02 98.64 26.34C97.24 24.66 95.58 23.34 93.66 22.38C91.74 21.42 89.62 20.94 87.3 20.94C84.9 20.94 82.72 21.44 80.76 22.44C78.84 23.44 77.18 24.8 75.78 26.52C74.42 28.2 73.36 30.1 72.6 32.22C71.88 34.34 71.52 36.5 71.52 38.7ZM140.404 60H136.324V42.54C136.324 38.86 135.784 36.18 134.704 34.5C133.624 32.78 131.924 31.92 129.604 31.92C128.004 31.92 126.424 32.32 124.864 33.12C123.304 33.88 121.924 34.94 120.724 36.3C119.564 37.62 118.724 39.14 118.204 40.86V60H114.124V28.74H117.844V35.82C118.684 34.3 119.784 32.98 121.144 31.86C122.504 30.7 124.044 29.8 125.764 29.16C127.484 28.52 129.264 28.2 131.104 28.2C132.824 28.2 134.284 28.52 135.484 29.16C136.684 29.8 137.644 30.72 138.364 31.92C139.084 33.08 139.604 34.5 139.924 36.18C140.244 37.82 140.404 39.66 140.404 41.7V60ZM149.285 16.2H153.365V52.92C153.365 54.48 153.645 55.5 154.205 55.98C154.765 56.46 155.445 56.7 156.245 56.7C156.965 56.7 157.685 56.62 158.405 56.46C159.125 56.3 159.745 56.14 160.265 55.98L160.985 59.28C160.225 59.6 159.285 59.86 158.165 60.06C157.085 60.26 156.145 60.36 155.345 60.36C153.505 60.36 152.025 59.82 150.905 58.74C149.825 57.66 149.285 56.18 149.285 54.3V16.2ZM165.452 60V28.74H169.532V60H165.452ZM165.452 22.2V16.2H169.532V22.2H165.452ZM204.799 60H200.719V42.54C200.719 38.86 200.179 36.18 199.099 34.5C198.019 32.78 196.319 31.92 193.999 31.92C192.399 31.92 190.819 32.32 189.259 33.12C187.699 33.88 186.319 34.94 185.119 36.3C183.959 37.62 183.119 39.14 182.599 40.86V60H178.519V28.74H182.239V35.82C183.079 34.3 184.179 32.98 185.539 31.86C186.899 30.7 188.439 29.8 190.159 29.16C191.879 28.52 193.659 28.2 195.499 28.2C197.219 28.2 198.679 28.52 199.879 29.16C201.079 29.8 202.039 30.72 202.759 31.92C203.479 33.08 203.999 34.5 204.319 36.18C204.639 37.82 204.799 39.66 204.799 41.7V60ZM226.999 60.6C224.759 60.6 222.679 60.18 220.759 59.34C218.839 58.46 217.179 57.28 215.779 55.8C214.379 54.28 213.279 52.54 212.479 50.58C211.719 48.62 211.339 46.52 211.339 44.28C211.339 41.36 211.999 38.68 213.319 36.24C214.679 33.8 216.539 31.86 218.899 30.42C221.259 28.94 223.939 28.2 226.939 28.2C230.019 28.2 232.699 28.94 234.979 30.42C237.299 31.9 239.119 33.86 240.439 36.3C241.759 38.7 242.419 41.34 242.419 44.22C242.419 44.54 242.419 44.86 242.419 45.18C242.419 45.46 242.399 45.68 242.359 45.84H215.599C215.799 48.08 216.419 50.08 217.459 51.84C218.539 53.56 219.919 54.94 221.599 55.98C223.319 56.98 225.179 57.48 227.179 57.48C229.219 57.48 231.139 56.96 232.939 55.92C234.779 54.88 236.059 53.52 236.779 51.84L240.319 52.8C239.679 54.28 238.699 55.62 237.379 56.82C236.059 58.02 234.499 58.96 232.699 59.64C230.939 60.28 229.039 60.6 226.999 60.6ZM215.479 42.9H238.579C238.419 40.62 237.799 38.62 236.719 36.9C235.679 35.18 234.299 33.84 232.579 32.88C230.899 31.88 229.039 31.38 226.999 31.38C224.959 31.38 223.099 31.88 221.419 32.88C219.739 33.84 218.359 35.2 217.279 36.96C216.239 38.68 215.639 40.66 215.479 42.9Z" fill="#0080FF"/>
</svg>
