<svg width="24" height="24" viewBox="0 0 24 24" fill="none" xmlns="http://www.w3.org/2000/svg">
<path d="M0.633594 4.5375C0.441406 4.34531 0.347656 4.10156 0.347656 3.80625C0.347656 3.51094 0.441406 3.26719 0.633594 3.075C0.825781 2.88281 1.06953 2.78906 1.36484 2.78906H22.7492C23.0445 2.78906 23.2883 2.88281 23.4805 3.075C23.6727 3.26719 23.7664 3.51094 23.7664 3.80625C23.7664 4.10156 23.6727 4.34531 23.4805 4.5375C23.2883 4.72969 23.0445 4.82344 22.7492 4.82344H1.36484C1.06953 4.82344 0.825781 4.72969 0.633594 4.5375ZM23.4805 11.2219C23.6727 11.4141 23.7664 11.6578 23.7664 11.9531C23.7664 12.2484 23.6727 12.4922 23.4805 12.6844C23.2883 12.8766 23.0445 12.9703 22.7492 12.9703H1.36484C1.06953 12.9703 0.825781 12.8766 0.633594 12.6844C0.441406 12.4922 0.347656 12.2484 0.347656 11.9531C0.347656 11.6578 0.441406 11.4141 0.633594 11.2219C0.825781 11.0297 1.06953 10.9359 1.36484 10.9359H22.7492C23.0445 10.9359 23.2883 11.0297 23.4805 11.2219ZM23.4805 19.3641C23.6727 19.5563 23.7664 19.8 23.7664 20.0953C23.7664 20.3906 23.6727 20.6344 23.4805 20.8266C23.2883 21.0188 23.0445 21.1125 22.7492 21.1125H1.36484C1.06953 21.1125 0.825781 21.0188 0.633594 20.8266C0.441406 20.6344 0.347656 20.3906 0.347656 20.0953C0.347656 19.8 0.441406 19.5563 0.633594 19.3641C0.825781 19.1719 1.06953 19.0781 1.36484 19.0781H22.7492C23.0445 19.0781 23.2883 19.1766 23.4805 19.3641Z" fill="white"/>
</svg>
