<svg width="364" height="22" viewBox="0 0 364 22" fill="none" xmlns="http://www.w3.org/2000/svg">
<path d="M0.672 11.24C0.672 10.5467 0.789333 9.86933 1.024 9.208C1.26933 8.536 1.62133 7.928 2.08 7.384C2.53867 6.82933 3.104 6.392 3.776 6.072C4.448 5.74133 5.21067 5.576 6.064 5.576C7.07733 5.576 7.94133 5.81067 8.656 6.28C9.38133 6.73867 9.91467 7.33067 10.256 8.056L9.376 8.6C9.13067 8.09867 8.82133 7.704 8.448 7.416C8.07467 7.11733 7.67467 6.904 7.248 6.776C6.832 6.648 6.416 6.584 6 6.584C5.31733 6.584 4.71467 6.72267 4.192 7C3.66933 7.26667 3.22667 7.62933 2.864 8.088C2.512 8.536 2.24533 9.04267 2.064 9.608C1.88267 10.1627 1.792 10.728 1.792 11.304C1.792 11.9333 1.89867 12.536 2.112 13.112C2.32533 13.688 2.624 14.2 3.008 14.648C3.392 15.0853 3.84 15.4373 4.352 15.704C4.87467 15.96 5.44 16.088 6.048 16.088C6.47467 16.088 6.912 16.0133 7.36 15.864C7.808 15.7147 8.224 15.4853 8.608 15.176C9.00267 14.8667 9.31733 14.4667 9.552 13.976L10.48 14.456C10.2453 15.0213 9.88267 15.5013 9.392 15.896C8.90133 16.2907 8.352 16.5893 7.744 16.792C7.14667 16.9947 6.56 17.096 5.984 17.096C5.20533 17.096 4.49067 16.9307 3.84 16.6C3.18933 16.2587 2.624 15.8107 2.144 15.256C1.67467 14.6907 1.312 14.0613 1.056 13.368C0.8 12.664 0.672 11.9547 0.672 11.24ZM12.1528 17V8.664H13.2408V12.248H18.0088V8.664H19.0968V17H18.0088V13.224H13.2408V17H12.1528ZM20.8249 14.6C20.8249 14.0773 20.9742 13.6293 21.2729 13.256C21.5715 12.872 21.9822 12.5787 22.5049 12.376C23.0382 12.1627 23.6515 12.056 24.3449 12.056C24.7502 12.056 25.1715 12.088 25.6089 12.152C26.0462 12.216 26.4355 12.312 26.7769 12.44V11.736C26.7769 11.032 26.5689 10.472 26.1529 10.056C25.7369 9.64 25.1609 9.432 24.4249 9.432C23.9769 9.432 23.5342 9.51733 23.0969 9.688C22.6702 9.848 22.2222 10.088 21.7529 10.408L21.3369 9.64C21.8809 9.26667 22.4142 8.98933 22.9369 8.808C23.4595 8.616 23.9929 8.52 24.5369 8.52C25.5609 8.52 26.3715 8.81333 26.9689 9.4C27.5662 9.98667 27.8649 10.7973 27.8649 11.832V15.688C27.8649 15.8373 27.8969 15.9493 27.9609 16.024C28.0249 16.088 28.1262 16.1253 28.2649 16.136V17C28.1475 17.0107 28.0462 17.0213 27.9609 17.032C27.8755 17.0427 27.8115 17.0427 27.7689 17.032C27.5022 17.0213 27.2995 16.936 27.1609 16.776C27.0222 16.616 26.9475 16.4453 26.9369 16.264L26.9209 15.656C26.5475 16.136 26.0622 16.5093 25.4649 16.776C24.8675 17.032 24.2595 17.16 23.6409 17.16C23.1075 17.16 22.6222 17.048 22.1849 16.824C21.7582 16.5893 21.4222 16.28 21.1769 15.896C20.9422 15.5013 20.8249 15.0693 20.8249 14.6ZM26.4089 15.24C26.5262 15.0907 26.6169 14.9467 26.6809 14.808C26.7449 14.6693 26.7769 14.5467 26.7769 14.44V13.224C26.4142 13.0853 26.0355 12.9787 25.6409 12.904C25.2569 12.8293 24.8675 12.792 24.4729 12.792C23.6942 12.792 23.0649 12.9467 22.5849 13.256C22.1049 13.5653 21.8649 13.9867 21.8649 14.52C21.8649 14.8293 21.9449 15.1227 22.1049 15.4C22.2649 15.6667 22.4995 15.8907 22.8089 16.072C23.1182 16.2427 23.4809 16.328 23.8969 16.328C24.4195 16.328 24.9049 16.2267 25.3529 16.024C25.8115 15.8213 26.1635 15.56 26.4089 15.24ZM34.9836 17V13.512C34.6423 13.672 34.285 13.7947 33.9116 13.88C33.5383 13.9547 33.1383 13.992 32.7116 13.992C31.7943 13.992 31.101 13.7573 30.6316 13.288C30.173 12.8187 29.9436 12.0987 29.9436 11.128V8.664H31.0316V10.984C31.0316 11.7307 31.181 12.2747 31.4796 12.616C31.789 12.9573 32.2796 13.128 32.9516 13.128C33.325 13.128 33.6983 13.0853 34.0716 13C34.445 12.9147 34.749 12.8027 34.9836 12.664V8.664H36.0716V17H34.9836ZM37.7936 14.6C37.7936 14.0773 37.943 13.6293 38.2416 13.256C38.5403 12.872 38.951 12.5787 39.4736 12.376C40.007 12.1627 40.6203 12.056 41.3136 12.056C41.719 12.056 42.1403 12.088 42.5776 12.152C43.015 12.216 43.4043 12.312 43.7456 12.44V11.736C43.7456 11.032 43.5376 10.472 43.1216 10.056C42.7056 9.64 42.1296 9.432 41.3936 9.432C40.9456 9.432 40.503 9.51733 40.0656 9.688C39.639 9.848 39.191 10.088 38.7216 10.408L38.3056 9.64C38.8496 9.26667 39.383 8.98933 39.9056 8.808C40.4283 8.616 40.9616 8.52 41.5056 8.52C42.5296 8.52 43.3403 8.81333 43.9376 9.4C44.535 9.98667 44.8336 10.7973 44.8336 11.832V15.688C44.8336 15.8373 44.8656 15.9493 44.9296 16.024C44.9936 16.088 45.095 16.1253 45.2336 16.136V17C45.1163 17.0107 45.015 17.0213 44.9296 17.032C44.8443 17.0427 44.7803 17.0427 44.7376 17.032C44.471 17.0213 44.2683 16.936 44.1296 16.776C43.991 16.616 43.9163 16.4453 43.9056 16.264L43.8896 15.656C43.5163 16.136 43.031 16.5093 42.4336 16.776C41.8363 17.032 41.2283 17.16 40.6096 17.16C40.0763 17.16 39.591 17.048 39.1536 16.824C38.727 16.5893 38.391 16.28 38.1456 15.896C37.911 15.5013 37.7936 15.0693 37.7936 14.6ZM43.3776 15.24C43.495 15.0907 43.5856 14.9467 43.6496 14.808C43.7136 14.6693 43.7456 14.5467 43.7456 14.44V13.224C43.383 13.0853 43.0043 12.9787 42.6096 12.904C42.2256 12.8293 41.8363 12.792 41.4416 12.792C40.663 12.792 40.0336 12.9467 39.5536 13.256C39.0736 13.5653 38.8336 13.9867 38.8336 14.52C38.8336 14.8293 38.9136 15.1227 39.0736 15.4C39.2336 15.6667 39.4683 15.8907 39.7776 16.072C40.087 16.2427 40.4496 16.328 40.8656 16.328C41.3883 16.328 41.8736 16.2267 42.3216 16.024C42.7803 15.8213 43.1323 15.56 43.3776 15.24ZM46.3844 17.048V16.056C46.6724 16.056 46.9284 15.9813 47.1524 15.832C47.3764 15.672 47.5737 15.4053 47.7444 15.032C47.9257 14.6587 48.0697 14.1467 48.1764 13.496C48.283 12.8347 48.3524 11.9973 48.3844 10.984L48.4804 8.664H53.8884V17H52.8004V9.64H49.4404L49.4084 11.08C49.3657 12.232 49.275 13.1973 49.1364 13.976C48.9977 14.744 48.8004 15.352 48.5444 15.8C48.299 16.248 47.995 16.568 47.6324 16.76C47.2697 16.952 46.8537 17.048 46.3844 17.048ZM55.6217 14.6C55.6217 14.0773 55.7711 13.6293 56.0698 13.256C56.3684 12.872 56.7791 12.5787 57.3018 12.376C57.8351 12.1627 58.4484 12.056 59.1418 12.056C59.5471 12.056 59.9684 12.088 60.4058 12.152C60.8431 12.216 61.2324 12.312 61.5738 12.44V11.736C61.5738 11.032 61.3658 10.472 60.9498 10.056C60.5338 9.64 59.9578 9.432 59.2218 9.432C58.7738 9.432 58.3311 9.51733 57.8938 9.688C57.4671 9.848 57.0191 10.088 56.5498 10.408L56.1338 9.64C56.6778 9.26667 57.2111 8.98933 57.7338 8.808C58.2564 8.616 58.7898 8.52 59.3338 8.52C60.3578 8.52 61.1684 8.81333 61.7658 9.4C62.3631 9.98667 62.6618 10.7973 62.6618 11.832V15.688C62.6618 15.8373 62.6938 15.9493 62.7578 16.024C62.8218 16.088 62.9231 16.1253 63.0618 16.136V17C62.9444 17.0107 62.8431 17.0213 62.7578 17.032C62.6724 17.0427 62.6084 17.0427 62.5658 17.032C62.2991 17.0213 62.0964 16.936 61.9578 16.776C61.8191 16.616 61.7444 16.4453 61.7338 16.264L61.7178 15.656C61.3444 16.136 60.8591 16.5093 60.2618 16.776C59.6644 17.032 59.0564 17.16 58.4378 17.16C57.9044 17.16 57.4191 17.048 56.9818 16.824C56.5551 16.5893 56.2191 16.28 55.9738 15.896C55.7391 15.5013 55.6217 15.0693 55.6217 14.6ZM61.2058 15.24C61.3231 15.0907 61.4138 14.9467 61.4778 14.808C61.5418 14.6693 61.5738 14.5467 61.5738 14.44V13.224C61.2111 13.0853 60.8324 12.9787 60.4378 12.904C60.0538 12.8293 59.6644 12.792 59.2698 12.792C58.4911 12.792 57.8618 12.9467 57.3818 13.256C56.9018 13.5653 56.6618 13.9867 56.6618 14.52C56.6618 14.8293 56.7418 15.1227 56.9018 15.4C57.0618 15.6667 57.2964 15.8907 57.6058 16.072C57.9151 16.2427 58.2778 16.328 58.6938 16.328C59.2164 16.328 59.7018 16.2267 60.1498 16.024C60.6084 15.8213 60.9604 15.56 61.2058 15.24ZM68.1626 18.936V16.024H68.3066C68.552 16.024 68.776 15.9493 68.9786 15.8C69.1813 15.6507 69.3626 15.3893 69.5226 15.016C69.6826 14.6427 69.8106 14.1307 69.9066 13.48C70.0026 12.8187 70.0666 11.9867 70.0986 10.984L70.1786 8.664H75.6026V16.024H76.7226V18.936H75.7466V17H69.1226V18.936H68.1626ZM69.9546 16.024H74.5146V9.64H71.1546L71.1066 11.08C71.0746 12.072 71.0053 12.904 70.8986 13.576C70.8026 14.2373 70.6746 14.7653 70.5146 15.16C70.3653 15.544 70.1786 15.832 69.9546 16.024ZM81.9719 17.16C81.3745 17.16 80.8199 17.048 80.3079 16.824C79.7959 16.5893 79.3532 16.2747 78.9799 15.88C78.6065 15.4747 78.3132 15.0107 78.0999 14.488C77.8972 13.9653 77.7959 13.4053 77.7959 12.808C77.7959 12.0293 77.9719 11.3147 78.3239 10.664C78.6865 10.0133 79.1825 9.496 79.8119 9.112C80.4412 8.71733 81.1559 8.52 81.9559 8.52C82.7772 8.52 83.4919 8.71733 84.0999 9.112C84.7185 9.50667 85.2039 10.0293 85.5559 10.68C85.9079 11.32 86.0839 12.024 86.0839 12.792C86.0839 12.8773 86.0839 12.9627 86.0839 13.048C86.0839 13.1227 86.0785 13.1813 86.0679 13.224H78.9319C78.9852 13.8213 79.1505 14.3547 79.4279 14.824C79.7159 15.2827 80.0839 15.6507 80.5319 15.928C80.9905 16.1947 81.4865 16.328 82.0199 16.328C82.5639 16.328 83.0759 16.1893 83.5559 15.912C84.0465 15.6347 84.3879 15.272 84.5799 14.824L85.5239 15.08C85.3532 15.4747 85.0919 15.832 84.7399 16.152C84.3879 16.472 83.9719 16.7227 83.4919 16.904C83.0225 17.0747 82.5159 17.16 81.9719 17.16ZM78.8999 12.44H85.0599C85.0172 11.832 84.8519 11.2987 84.5639 10.84C84.2865 10.3813 83.9185 10.024 83.4599 9.768C83.0119 9.50133 82.5159 9.368 81.9719 9.368C81.4279 9.368 80.9319 9.50133 80.4839 9.768C80.0359 10.024 79.6679 10.3867 79.3799 10.856C79.1025 11.3147 78.9425 11.8427 78.8999 12.44ZM87.7465 17V8.664H88.8345V16.04H92.4025V8.664H93.5065V16.04H97.0585V8.664H98.1465V17H87.7465ZM104.128 17.16C103.531 17.16 102.976 17.048 102.464 16.824C101.952 16.5893 101.509 16.2747 101.136 15.88C100.763 15.4747 100.469 15.0107 100.256 14.488C100.053 13.9653 99.9521 13.4053 99.9521 12.808C99.9521 12.0293 100.128 11.3147 100.48 10.664C100.843 10.0133 101.339 9.496 101.968 9.112C102.597 8.71733 103.312 8.52 104.112 8.52C104.933 8.52 105.648 8.71733 106.256 9.112C106.875 9.50667 107.36 10.0293 107.712 10.68C108.064 11.32 108.24 12.024 108.24 12.792C108.24 12.8773 108.24 12.9627 108.24 13.048C108.24 13.1227 108.235 13.1813 108.224 13.224H101.088C101.141 13.8213 101.307 14.3547 101.584 14.824C101.872 15.2827 102.24 15.6507 102.688 15.928C103.147 16.1947 103.643 16.328 104.176 16.328C104.72 16.328 105.232 16.1893 105.712 15.912C106.203 15.6347 106.544 15.272 106.736 14.824L107.68 15.08C107.509 15.4747 107.248 15.832 106.896 16.152C106.544 16.472 106.128 16.7227 105.648 16.904C105.179 17.0747 104.672 17.16 104.128 17.16ZM101.056 12.44H107.216C107.173 11.832 107.008 11.2987 106.72 10.84C106.443 10.3813 106.075 10.024 105.616 9.768C105.168 9.50133 104.672 9.368 104.128 9.368C103.584 9.368 103.088 9.50133 102.64 9.768C102.192 10.024 101.824 10.3867 101.536 10.856C101.259 11.3147 101.099 11.8427 101.056 12.44ZM109.903 17V8.664H114.063C114.532 8.664 114.927 8.76533 115.247 8.968C115.567 9.16 115.807 9.41067 115.967 9.72C116.137 10.0293 116.223 10.36 116.223 10.712C116.223 11.16 116.116 11.5653 115.903 11.928C115.689 12.28 115.38 12.5467 114.975 12.728C115.455 12.8667 115.844 13.1173 116.143 13.48C116.441 13.8427 116.591 14.28 116.591 14.792C116.591 15.24 116.479 15.6293 116.255 15.96C116.041 16.2907 115.743 16.5467 115.359 16.728C114.985 16.9093 114.553 17 114.063 17H109.903ZM110.943 16.216H114.031C114.308 16.216 114.559 16.1467 114.783 16.008C115.017 15.8587 115.199 15.6667 115.327 15.432C115.465 15.1973 115.535 14.952 115.535 14.696C115.535 14.4187 115.471 14.168 115.343 13.944C115.215 13.7093 115.044 13.5227 114.831 13.384C114.617 13.2453 114.372 13.176 114.095 13.176H110.943V16.216ZM110.943 12.424H113.775C114.052 12.424 114.297 12.3493 114.511 12.2C114.724 12.0507 114.889 11.8587 115.007 11.624C115.124 11.3893 115.183 11.144 115.183 10.888C115.183 10.504 115.055 10.168 114.799 9.88C114.553 9.592 114.233 9.448 113.839 9.448H110.943V12.424ZM117.681 17.048V16.056C117.969 16.056 118.225 15.9813 118.449 15.832C118.673 15.672 118.871 15.4053 119.041 15.032C119.223 14.6587 119.367 14.1467 119.473 13.496C119.58 12.8347 119.649 11.9973 119.681 10.984L119.777 8.664H125.185V17H124.097V9.64H120.737L120.705 11.08C120.663 12.232 120.572 13.1973 120.433 13.976C120.295 14.744 120.097 15.352 119.841 15.8C119.596 16.248 119.292 16.568 118.929 16.76C118.567 16.952 118.151 17.048 117.681 17.048ZM131.191 17.16C130.593 17.16 130.039 17.048 129.527 16.824C129.015 16.5893 128.572 16.2747 128.199 15.88C127.825 15.4747 127.532 15.0107 127.319 14.488C127.116 13.9653 127.015 13.4053 127.015 12.808C127.015 12.0293 127.191 11.3147 127.543 10.664C127.905 10.0133 128.401 9.496 129.031 9.112C129.66 8.71733 130.375 8.52 131.175 8.52C131.996 8.52 132.711 8.71733 133.319 9.112C133.937 9.50667 134.423 10.0293 134.775 10.68C135.127 11.32 135.303 12.024 135.303 12.792C135.303 12.8773 135.303 12.9627 135.303 13.048C135.303 13.1227 135.297 13.1813 135.287 13.224H128.151C128.204 13.8213 128.369 14.3547 128.647 14.824C128.935 15.2827 129.303 15.6507 129.751 15.928C130.209 16.1947 130.705 16.328 131.239 16.328C131.783 16.328 132.295 16.1893 132.775 15.912C133.265 15.6347 133.607 15.272 133.799 14.824L134.743 15.08C134.572 15.4747 134.311 15.832 133.959 16.152C133.607 16.472 133.191 16.7227 132.711 16.904C132.241 17.0747 131.735 17.16 131.191 17.16ZM128.119 12.44H134.279C134.236 11.832 134.071 11.2987 133.783 10.84C133.505 10.3813 133.137 10.024 132.679 9.768C132.231 9.50133 131.735 9.368 131.191 9.368C130.647 9.368 130.151 9.50133 129.703 9.768C129.255 10.024 128.887 10.3867 128.599 10.856C128.321 11.3147 128.161 11.8427 128.119 12.44Z" fill="#0080FF"/>
<path d="M158.654 9.67915C158.98 9.35353 158.98 8.8256 158.654 8.49998C158.329 8.17437 157.801 8.17437 157.475 8.49998L154.244 11.7312L151.012 8.49998C150.687 8.17437 150.159 8.17437 149.833 8.49998C149.508 8.8256 149.508 9.35353 149.833 9.67915L153.529 13.3753C153.924 13.7698 154.564 13.7698 154.958 13.3753L158.654 9.67915Z" fill="#0080FF"/>
<path d="M205.424 17V5.64H214V17H212.88V6.632H206.544V17H205.424ZM220.174 17.16C219.577 17.16 219.022 17.048 218.51 16.824C218.009 16.5893 217.571 16.2747 217.198 15.88C216.835 15.4747 216.553 15.016 216.35 14.504C216.147 13.9813 216.046 13.432 216.046 12.856C216.046 12.2587 216.147 11.704 216.35 11.192C216.553 10.6693 216.841 10.2107 217.214 9.816C217.587 9.41067 218.025 9.096 218.526 8.872C219.038 8.63733 219.593 8.52 220.19 8.52C220.787 8.52 221.337 8.63733 221.838 8.872C222.339 9.096 222.777 9.41067 223.15 9.816C223.523 10.2107 223.811 10.6693 224.014 11.192C224.217 11.704 224.318 12.2587 224.318 12.856C224.318 13.432 224.217 13.9813 224.014 14.504C223.811 15.016 223.523 15.4747 223.15 15.88C222.787 16.2747 222.35 16.5893 221.838 16.824C221.337 17.048 220.782 17.16 220.174 17.16ZM217.15 12.872C217.15 13.4907 217.283 14.056 217.55 14.568C217.827 15.0693 218.195 15.4693 218.654 15.768C219.113 16.056 219.619 16.2 220.174 16.2C220.729 16.2 221.235 16.0507 221.694 15.752C222.153 15.4533 222.521 15.048 222.798 14.536C223.075 14.0133 223.214 13.448 223.214 12.84C223.214 12.2213 223.075 11.656 222.798 11.144C222.521 10.632 222.153 10.2267 221.694 9.928C221.235 9.62933 220.729 9.48 220.174 9.48C219.619 9.48 219.113 9.63467 218.654 9.944C218.206 10.2533 217.843 10.664 217.566 11.176C217.289 11.6773 217.15 12.2427 217.15 12.872ZM229.288 18.936V16.024H229.432C229.677 16.024 229.901 15.9493 230.104 15.8C230.306 15.6507 230.488 15.3893 230.648 15.016C230.808 14.6427 230.936 14.1307 231.032 13.48C231.128 12.8187 231.192 11.9867 231.224 10.984L231.304 8.664H236.728V16.024H237.848V18.936H236.872V17H230.248V18.936H229.288ZM231.08 16.024H235.64V9.64H232.28L232.232 11.08C232.2 12.072 232.13 12.904 232.024 13.576C231.928 14.2373 231.8 14.7653 231.64 15.16C231.49 15.544 231.304 15.832 231.08 16.024ZM238.697 17.048V16.056C238.985 16.056 239.241 15.9813 239.465 15.832C239.689 15.672 239.886 15.4053 240.057 15.032C240.238 14.6587 240.382 14.1467 240.489 13.496C240.596 12.8347 240.665 11.9973 240.697 10.984L240.793 8.664H246.201V17H245.113V9.64H241.753L241.721 11.08C241.678 12.232 241.588 13.1973 241.449 13.976C241.31 14.744 241.113 15.352 240.857 15.8C240.612 16.248 240.308 16.568 239.945 16.76C239.582 16.952 239.166 17.048 238.697 17.048ZM248.59 17V8.68H249.678V15.528L254.75 8.664H255.726V17H254.638V10.264L249.646 17H248.59ZM260.186 17V9.64H257.21V8.664H264.25V9.64H261.274V17H260.186ZM269.331 17.16C268.734 17.16 268.179 17.048 267.667 16.824C267.155 16.5893 266.713 16.2747 266.339 15.88C265.966 15.4747 265.673 15.0107 265.459 14.488C265.257 13.9653 265.155 13.4053 265.155 12.808C265.155 12.0293 265.331 11.3147 265.683 10.664C266.046 10.0133 266.542 9.496 267.171 9.112C267.801 8.71733 268.515 8.52 269.315 8.52C270.137 8.52 270.851 8.71733 271.459 9.112C272.078 9.50667 272.563 10.0293 272.915 10.68C273.267 11.32 273.443 12.024 273.443 12.792C273.443 12.8773 273.443 12.9627 273.443 13.048C273.443 13.1227 273.438 13.1813 273.427 13.224H266.291C266.345 13.8213 266.51 14.3547 266.787 14.824C267.075 15.2827 267.443 15.6507 267.891 15.928C268.35 16.1947 268.846 16.328 269.379 16.328C269.923 16.328 270.435 16.1893 270.915 15.912C271.406 15.6347 271.747 15.272 271.939 14.824L272.883 15.08C272.713 15.4747 272.451 15.832 272.099 16.152C271.747 16.472 271.331 16.7227 270.851 16.904C270.382 17.0747 269.875 17.16 269.331 17.16ZM266.259 12.44H272.419C272.377 11.832 272.211 11.2987 271.923 10.84C271.646 10.3813 271.278 10.024 270.819 9.768C270.371 9.50133 269.875 9.368 269.331 9.368C268.787 9.368 268.291 9.50133 267.843 9.768C267.395 10.024 267.027 10.3867 266.739 10.856C266.462 11.3147 266.302 11.8427 266.259 12.44ZM274.322 17.048V16.056C274.61 16.056 274.866 15.9813 275.09 15.832C275.314 15.672 275.511 15.4053 275.682 15.032C275.863 14.6587 276.007 14.1467 276.114 13.496C276.221 12.8347 276.29 11.9973 276.322 10.984L276.418 8.664H281.826V17H280.738V9.64H277.378L277.346 11.08C277.303 12.232 277.213 13.1973 277.074 13.976C276.935 14.744 276.738 15.352 276.482 15.8C276.237 16.248 275.933 16.568 275.57 16.76C275.207 16.952 274.791 17.048 274.322 17.048ZM284.215 17V8.664H285.303V11.608H287.463C288.413 11.608 289.127 11.8533 289.607 12.344C290.098 12.824 290.343 13.4587 290.343 14.248C290.343 14.76 290.237 15.224 290.023 15.64C289.81 16.056 289.495 16.3867 289.079 16.632C288.674 16.8773 288.162 17 287.543 17H284.215ZM285.303 16.136H287.399C287.837 16.136 288.189 16.0507 288.455 15.88C288.722 15.6987 288.919 15.4693 289.047 15.192C289.175 14.904 289.239 14.5947 289.239 14.264C289.239 13.944 289.181 13.6507 289.063 13.384C288.957 13.1067 288.765 12.888 288.487 12.728C288.221 12.5573 287.847 12.472 287.367 12.472H285.303V16.136ZM292.028 17V8.664H293.116V12.248H297.884V8.664H298.972V17H297.884V13.224H293.116V17H292.028ZM304.924 17.16C304.327 17.16 303.772 17.048 303.26 16.824C302.759 16.5893 302.321 16.2747 301.948 15.88C301.585 15.4747 301.303 15.016 301.1 14.504C300.897 13.9813 300.796 13.432 300.796 12.856C300.796 12.2587 300.897 11.704 301.1 11.192C301.303 10.6693 301.591 10.2107 301.964 9.816C302.337 9.41067 302.775 9.096 303.276 8.872C303.788 8.63733 304.343 8.52 304.94 8.52C305.537 8.52 306.087 8.63733 306.588 8.872C307.089 9.096 307.527 9.41067 307.9 9.816C308.273 10.2107 308.561 10.6693 308.764 11.192C308.967 11.704 309.068 12.2587 309.068 12.856C309.068 13.432 308.967 13.9813 308.764 14.504C308.561 15.016 308.273 15.4747 307.9 15.88C307.537 16.2747 307.1 16.5893 306.588 16.824C306.087 17.048 305.532 17.16 304.924 17.16ZM301.9 12.872C301.9 13.4907 302.033 14.056 302.3 14.568C302.577 15.0693 302.945 15.4693 303.404 15.768C303.863 16.056 304.369 16.2 304.924 16.2C305.479 16.2 305.985 16.0507 306.444 15.752C306.903 15.4533 307.271 15.048 307.548 14.536C307.825 14.0133 307.964 13.448 307.964 12.84C307.964 12.2213 307.825 11.656 307.548 11.144C307.271 10.632 306.903 10.2267 306.444 9.928C305.985 9.62933 305.479 9.48 304.924 9.48C304.369 9.48 303.863 9.63467 303.404 9.944C302.956 10.2533 302.593 10.664 302.316 11.176C302.039 11.6773 301.9 12.2427 301.9 12.872ZM314.504 17.16C313.896 17.16 313.336 17.048 312.824 16.824C312.322 16.5893 311.88 16.2693 311.496 15.864C311.122 15.4587 310.829 14.9947 310.616 14.472C310.413 13.9493 310.312 13.3947 310.312 12.808C310.312 12.0187 310.488 11.2987 310.84 10.648C311.192 9.99733 311.682 9.48 312.312 9.096C312.941 8.712 313.666 8.52 314.488 8.52C315.266 8.52 315.954 8.70133 316.552 9.064C317.149 9.416 317.592 9.896 317.88 10.504L316.824 10.84C316.589 10.4133 316.258 10.0827 315.832 9.848C315.416 9.60267 314.952 9.48 314.44 9.48C313.885 9.48 313.378 9.624 312.92 9.912C312.461 10.2 312.093 10.5947 311.816 11.096C311.549 11.5973 311.416 12.168 311.416 12.808C311.416 13.4373 311.554 14.008 311.832 14.52C312.109 15.032 312.477 15.4427 312.936 15.752C313.394 16.0507 313.901 16.2 314.456 16.2C314.818 16.2 315.165 16.136 315.496 16.008C315.837 15.88 316.13 15.7093 316.376 15.496C316.632 15.272 316.802 15.032 316.888 14.776L317.96 15.096C317.81 15.4907 317.56 15.848 317.208 16.168C316.866 16.4773 316.461 16.7227 315.992 16.904C315.533 17.0747 315.037 17.16 314.504 17.16ZM321.749 17V9.64H318.773V8.664H325.813V9.64H322.837V17H321.749ZM327.278 17V8.68H328.366V15.528L333.438 8.664H334.414V17H333.326V10.264L328.334 17H327.278Z" fill="#4D5F7D"/>
<path d="M358.654 9.67915C358.98 9.35353 358.98 8.8256 358.654 8.49998C358.329 8.17437 357.801 8.17437 357.475 8.49998L354.244 11.7312L351.013 8.49998C350.687 8.17437 350.159 8.17437 349.833 8.49998C349.508 8.8256 349.508 9.35353 349.833 9.67915L353.529 13.3753C353.924 13.7698 354.564 13.7698 354.958 13.3753L358.654 9.67915Z" fill="#4D5F7D"/>
</svg>
